<svg width="246" height="69" viewBox="0 0 246 69" fill="none" xmlns="http://www.w3.org/2000/svg">
<path fill-rule="evenodd" clip-rule="evenodd" d="M48.4843 51.3694C48.2953 51.3694 48.1064 51.5579 48.1064 51.7465C48.1064 51.9351 48.2576 52.1236 48.4843 52.1236C48.6732 52.1236 48.8621 51.9351 48.8621 51.7465C48.8621 51.5579 48.6732 51.3694 48.4843 51.3694Z" fill="#A6AEBF"/>
<path fill-rule="evenodd" clip-rule="evenodd" d="M49.6919 54.8767C49.6919 55.103 49.843 55.2538 50.0697 55.2538C50.2964 55.2538 50.4475 55.0653 50.4475 54.8767C50.4475 54.6504 50.2964 54.4995 50.0697 54.4995C49.843 54.4995 49.6919 54.6881 49.6919 54.8767Z" fill="#A6AEBF"/>
<path fill-rule="evenodd" clip-rule="evenodd" d="M48.4843 54.4995C48.2953 54.4995 48.1064 54.6881 48.1064 54.8767C48.1064 55.103 48.2576 55.2538 48.4843 55.2538C48.6732 55.2538 48.8621 55.0653 48.8621 54.8767C48.8621 54.6881 48.6732 54.4995 48.4843 54.4995Z" fill="#A6AEBF"/>
<path fill-rule="evenodd" clip-rule="evenodd" d="M51.2415 54.8767C51.2415 55.103 51.3926 55.2538 51.6193 55.2538C51.8082 55.2538 51.9971 55.0653 51.9971 54.8767C51.9971 54.6504 51.846 54.4995 51.6193 54.4995C51.4304 54.4995 51.2415 54.6881 51.2415 54.8767Z" fill="#A6AEBF"/>
<path fill-rule="evenodd" clip-rule="evenodd" d="M47.955 47.8623L48.0305 48.7675L47.2749 48.692V49.6726L48.0305 49.5972L47.955 50.5401H48.975L48.8995 49.5972L49.6551 49.6726V48.692L48.8995 48.7675L48.975 47.8623H47.955Z" fill="#A6AEBF"/>
<path fill-rule="evenodd" clip-rule="evenodd" d="M49.125 51.0681V54.274H52.2608C51.9585 52.6522 50.7118 51.3322 49.125 51.0681Z" fill="#A6AEBF"/>
<path fill-rule="evenodd" clip-rule="evenodd" d="M48.4843 52.9153C48.2953 52.9153 48.1064 53.1039 48.1064 53.2925C48.1064 53.5188 48.2576 53.6696 48.4843 53.6696C48.6732 53.6696 48.8621 53.481 48.8621 53.2925C48.8621 53.1039 48.6732 52.9153 48.4843 52.9153Z" fill="#A6AEBF"/>
<path fill-rule="evenodd" clip-rule="evenodd" d="M49.7684 57.0269C49.6551 57.0269 49.4284 57.8189 49.6551 58.4223C49.7685 58.7241 50.1084 58.8749 50.3351 58.7618C50.5996 58.6864 50.6752 58.4223 50.6752 58.2338C50.713 57.6303 50.184 57.0269 49.7684 57.0269Z" fill="#A6AEBF"/>
<path fill-rule="evenodd" clip-rule="evenodd" d="M47.1616 57.0269C46.746 57.0269 46.217 57.6303 46.217 58.2338C46.217 58.4223 46.2927 58.6487 46.5571 58.7618C46.8216 58.8372 47.1238 58.7241 47.2372 58.4223C47.5016 57.8566 47.2749 57.0269 47.1616 57.0269Z" fill="#A6AEBF"/>
<path fill-rule="evenodd" clip-rule="evenodd" d="M48.4839 56.6111C48.1438 56.6111 47.3882 58.2329 47.9549 59.0626C48.0683 59.2135 48.2572 59.3266 48.4839 59.3266C48.7106 59.3266 48.8994 59.2512 49.0128 59.0626C49.5795 58.2329 48.7861 56.6111 48.4839 56.6111Z" fill="#A6AEBF"/>
<path fill-rule="evenodd" clip-rule="evenodd" d="M44.6304 54.8768C44.6304 54.5374 44.7059 54.2734 44.7059 54.2734H47.8417V54.0093V51.7464V51.1052C46.3305 51.3692 45.1215 52.5384 44.7815 54.047C44.7059 54.1602 44.4037 54.2356 44.2148 54.1979C43.0814 54.047 40.739 53.6322 40.739 53.1418C40.739 52.4252 41.1924 52.1612 41.6835 52.1612C42.3258 52.1612 43.0436 52.5007 43.6481 51.6332C41.5324 51.7464 43.157 48.6536 41.4191 48.0879C41.4946 48.88 41.4191 50.2377 41.1546 50.992C41.1546 50.992 40.5501 50.3132 39.8323 50.0869C39.87 50.6526 39.7945 51.8218 39.5301 52.3498C39.5301 52.3498 38.7744 51.671 38.0188 51.4069C38.7366 52.4252 38.6989 53.8962 38.5099 54.8014C38.4722 55.0654 38.6611 55.3671 39.19 55.3671C40.0212 55.3294 42.9303 55.4425 44.177 55.9706C44.5549 56.1214 44.8948 56.31 45.046 56.574C45.1971 56.9512 45.4994 57.5169 45.915 57.8186C46.1039 57.1775 46.8595 56.4986 47.3883 56.4986C47.5395 56.4986 47.6907 56.7626 47.7284 56.9889C47.7662 56.7626 48.144 56.1214 48.5596 56.1214C48.9374 56.1214 49.2774 56.6494 49.4285 57.102C49.4663 56.838 49.6174 56.5363 49.7686 56.5363C50.2597 56.5363 50.902 56.9889 51.1664 57.7432C51.3554 57.5169 52.2621 56.3477 52.3376 55.5934H44.7815C44.7059 55.5557 44.6304 55.2162 44.6304 54.8768Z" fill="#A6AEBF"/>
<path fill-rule="evenodd" clip-rule="evenodd" d="M46.5566 54.8767C46.5566 55.103 46.7077 55.2538 46.9344 55.2538C47.1611 55.2538 47.3123 55.0653 47.3123 54.8767C47.3123 54.6504 47.1611 54.4995 46.9344 54.4995C46.7077 54.4995 46.5566 54.6881 46.5566 54.8767Z" fill="#A6AEBF"/>
<path fill-rule="evenodd" clip-rule="evenodd" d="M45.0078 54.8767C45.0078 55.103 45.1589 55.2538 45.3856 55.2538C45.5745 55.2538 45.7634 55.0653 45.7634 54.8767C45.7634 54.6504 45.6123 54.4995 45.3856 54.4995C45.1589 54.4995 45.0078 54.6881 45.0078 54.8767Z" fill="#A6AEBF"/>
<path fill-rule="evenodd" clip-rule="evenodd" d="M14.973 57.8941C15.0107 58.1205 15.1619 58.1959 15.3507 58.1959C15.5396 58.1959 15.653 58.0827 15.6908 57.8565C15.7663 57.3661 15.3885 56.5741 15.2374 56.4609C15.124 56.5741 14.8596 57.4039 14.973 57.8941Z" fill="#A6AEBF"/>
<path fill-rule="evenodd" clip-rule="evenodd" d="M17.9573 58.6867C17.7684 58.8753 17.6173 58.9885 17.5039 59.0639C17.5795 59.1393 17.7684 59.2525 18.0328 59.2525C18.184 59.2525 18.2973 59.2147 18.4107 59.1393C18.6373 58.7245 18.4107 58.3096 18.2973 58.2341C18.2595 58.3473 18.1084 58.4981 17.9573 58.6867Z" fill="#A6AEBF"/>
<path fill-rule="evenodd" clip-rule="evenodd" d="M16.9368 57.7051C17.2013 57.4411 17.2769 57.2148 17.2391 57.0639C17.1635 56.8376 16.5591 56.1965 15.7657 55.4421C15.7279 55.593 15.6901 55.7439 15.6523 55.8947C16.1813 56.5736 16.3702 57.3279 16.1813 57.9314C16.2568 57.9691 16.2946 58.0068 16.2946 58.0068C16.5212 58.0823 16.7857 57.8559 16.9368 57.7051Z" fill="#A6AEBF"/>
<path fill-rule="evenodd" clip-rule="evenodd" d="M17.9571 57.7427C17.9949 57.6295 17.9571 57.5164 17.9194 57.4787C17.8816 57.4409 17.8816 57.4409 17.8816 57.4409C17.8438 57.4409 17.7304 57.5541 17.6549 57.6673C17.5793 57.7804 17.466 57.8935 17.3526 58.0067C17.2393 58.1575 17.1259 58.233 17.0126 58.3461C16.8992 58.4593 16.7859 58.5347 16.7859 58.6101C16.7859 58.6101 16.7859 58.6479 16.8237 58.6479C16.8615 58.6856 16.937 58.7233 16.9748 58.7233C17.0882 58.7233 17.3148 58.6856 17.6171 58.3084C17.8438 58.0444 17.9194 57.8559 17.9571 57.7427Z" fill="#A6AEBF"/>
<path fill-rule="evenodd" clip-rule="evenodd" d="M13.1972 53.9714C13.1972 53.9714 13.0839 54.0845 13.0461 54.1977C13.1972 54.1977 13.3861 54.2354 13.5751 54.2731C13.5751 54.1222 13.5373 53.9337 13.5751 53.7451C13.3861 53.7451 13.235 53.896 13.1972 53.9714Z" fill="#A6AEBF"/>
<path fill-rule="evenodd" clip-rule="evenodd" d="M15.1235 54.1603C15.1235 54.1603 16.6348 55.4804 17.1259 55.9706C17.2392 56.0838 17.3904 56.1215 17.5793 56.0084C17.6548 55.9706 17.806 55.8952 17.9193 55.8575C19.3927 55.3295 21.8485 55.254 22.7552 55.3295C23.2841 55.3672 23.473 55.0278 23.4353 54.7638C23.2464 53.934 23.2086 52.3876 23.9264 51.3693C23.1708 51.6333 22.4152 52.3122 22.4152 52.3122C22.1507 51.7842 22.0373 50.615 22.1129 50.0492C21.3951 50.3132 20.7906 50.9544 20.7906 50.9544C20.5262 50.2378 20.4128 48.8423 20.5262 48.0503C18.7882 48.616 20.4128 51.7088 18.2971 51.5956C18.9016 52.463 19.6194 52.1236 20.2617 52.1236C20.7151 52.1236 21.2817 52.4254 21.2062 53.1042C21.1306 53.5946 18.2971 54.198 17.1637 54.198C16.3703 54.198 15.8413 53.934 15.4257 53.406C15.2369 53.142 15.048 53.0288 14.8213 53.0665C14.5568 53.1042 14.2168 53.406 14.2168 54.0472C14.2168 54.4997 14.4057 55.518 14.9346 55.518C15.2369 55.4804 15.2747 54.6883 15.1235 54.1603Z" fill="#A6AEBF"/>
<path fill-rule="evenodd" clip-rule="evenodd" d="M12.252 53.7069C12.3275 53.7446 12.3654 53.7069 12.4409 53.6692C12.2142 53.9709 12.252 54.1595 12.3275 54.2349C12.4787 54.3858 12.592 54.1218 12.9321 53.7446C13.3099 53.3675 13.5366 53.2543 13.3854 53.1035C13.3099 53.028 13.121 53.028 12.8187 53.2543C12.8565 53.1789 12.8565 53.1035 12.8565 53.0657C12.7431 52.7263 12.1765 52.2737 11.8742 52.2737C11.8364 52.2737 11.7986 52.2737 11.7609 52.3114C11.912 52.0851 11.8742 51.9343 11.7609 51.8588C11.6475 51.7457 11.6097 51.8211 11.4964 51.972C11.4964 51.8588 11.4964 51.7457 11.383 51.6325C10.9297 50.9537 8.51175 48.6529 7.94501 48.4267C7.60497 48.2758 7.49162 48.4644 7.49162 48.4644C7.49162 48.4644 7.30273 48.5775 7.45389 48.917C7.68058 49.4827 10.0229 51.8588 10.703 52.3114C10.8541 52.3869 10.9674 52.4246 11.0431 52.4246C10.8919 52.5377 10.8541 52.6131 10.9297 52.6886C11.0053 52.764 11.1941 52.8017 11.383 52.6509C11.383 52.6886 11.3453 52.7263 11.3453 52.8017C11.4586 53.028 11.9498 53.5937 12.252 53.7069Z" fill="#A6AEBF"/>
<path fill-rule="evenodd" clip-rule="evenodd" d="M13.9904 55.4049C13.9904 55.1785 13.5371 54.7637 13.0081 54.7637C12.2147 54.7637 11.8369 55.2917 11.8369 55.518C11.8369 56.0083 12.328 56.0837 12.4414 56.0837C13.0081 56.1591 13.9148 55.5557 13.9904 55.4049Z" fill="#A6AEBF"/>
<path fill-rule="evenodd" clip-rule="evenodd" d="M13.2724 56.6491C13.0457 56.9131 12.9701 57.1771 13.0457 57.4411C13.1212 57.7429 13.4235 57.8937 13.6879 57.8937C13.9902 57.8937 14.2169 57.7428 14.368 57.5165C14.6703 57.0262 14.6703 55.9702 14.5946 55.8193C14.3302 55.8571 13.6501 56.1965 13.2724 56.6491Z" fill="#A6AEBF"/>
<path fill-rule="evenodd" clip-rule="evenodd" d="M6.24547 45.4476C6.01879 45.2213 5.56542 45.5607 5.26317 45.4098C5.37651 44.731 5.86766 45.4476 6.35881 44.9572C6.54771 44.7687 6.43437 44.4292 6.32103 44.3538C6.13213 44.5424 5.7921 44.5046 5.7921 44.3915C6.32103 43.1092 5.26317 41.7137 4.28088 41.9022C4.46978 42.1663 4.54535 43.0714 4.46978 43.3355C4.84759 43.5995 4.58312 44.2784 4.16754 44.0898C3.90307 43.9766 3.37414 43.26 3.94085 42.7698C3.94085 42.5812 3.60083 42.5434 3.2608 42.996C3.52527 42.2039 2.01404 42.4303 1.67402 42.6566C1.48512 42.996 1.29622 44.5424 2.05183 44.2784C1.63624 44.6555 1.7118 44.9572 1.86293 44.9572C2.31629 44.3538 3.03412 44.8441 3.14746 45.1458C3.33636 45.5607 2.73188 45.8624 2.42963 45.4853C2.20295 45.5984 1.29622 45.5607 1.03175 45.3722C0.880632 46.4282 2.31629 47.4465 3.52527 46.843C3.63861 46.8808 3.71417 47.1825 3.52527 47.4088C3.63861 47.522 3.94085 47.5974 4.12975 47.4088C4.58312 46.9185 3.8653 46.4282 4.54535 46.2773C4.69646 46.5413 4.39422 47.0316 4.6209 47.2579C4.99871 47.6351 5.45208 46.9185 5.90545 46.8808C5.94322 46.315 6.58549 45.8247 6.24547 45.4476ZM2.46741 43.8258C2.46741 43.8258 2.24073 43.6749 2.50519 43.3355C2.80744 43.0338 2.95856 43.26 2.95856 43.26C2.95856 43.26 3.22302 43.8635 3.29859 44.1275C3.03412 44.0898 2.46741 43.8258 2.46741 43.8258ZM4.77203 45.6362C4.6209 45.6362 4.28088 45.9756 4.09198 45.787L3.29859 44.995L3.71417 44.5801L4.12975 44.1652L4.92315 44.9572C5.07427 45.1081 4.8098 45.4853 4.77203 45.6362Z" fill="#A6AEBF"/>
<path fill-rule="evenodd" clip-rule="evenodd" d="M6.43443 46.9189C6.35888 46.9189 6.24553 46.9189 6.16997 47.0321C6.09441 47.1075 6.05663 47.2207 6.09441 47.3716C6.13219 47.5224 6.20775 47.6733 6.35888 47.8241C6.50999 47.975 6.6989 48.0881 6.8878 48.0881C6.96336 48.0881 7.0767 48.0881 7.15229 47.975C7.30337 47.7864 7.22783 47.447 6.96336 47.183C6.81224 47.0322 6.62333 46.9189 6.43443 46.9189Z" fill="#A6AEBF"/>
<path fill-rule="evenodd" clip-rule="evenodd" d="M4.16772 44.542L3.94104 44.7683L3.71436 44.9946C3.71436 44.9946 4.16772 45.5603 4.50775 45.3717C4.73443 44.9946 4.16772 44.542 4.16772 44.542Z" fill="#A6AEBF"/>
<path fill-rule="evenodd" clip-rule="evenodd" d="M46.2167 40.696C46.1034 40.9978 45.8768 41.4881 45.6878 41.8275C45.8011 42.0161 45.9523 42.2047 46.0656 42.3556C46.0656 42.4687 45.4612 42.7704 45.0456 41.9784C44.63 41.903 44.1766 41.7521 43.9121 41.639C44.4033 42.6573 44.8566 43.4871 45.5745 43.9397C46.6323 44.6185 48.2947 44.4676 48.8236 43.7133C47.8791 43.223 46.7835 41.9784 46.2167 40.696Z" fill="#A6AEBF"/>
<path fill-rule="evenodd" clip-rule="evenodd" d="M56.116 26.7025C57.2872 26.2122 58.9495 25.0807 59.7051 24.2887C59.8184 24.4018 60.0829 25.0807 59.2139 25.7973C58.5717 26.3253 57.2872 26.9288 56.3048 27.306C55.8515 27.9471 55.0581 28.7014 53.8491 29.4935C56.1537 29.1163 58.9117 28.2111 60.2718 26.8911C62.8031 24.4018 61.443 21.3468 61.1408 20.668C59.4784 22.7046 56.3426 24.8921 53.3958 26.0613C54.378 26.2122 55.3981 26.4385 56.116 26.7025Z" fill="#A6AEBF"/>
<path fill-rule="evenodd" clip-rule="evenodd" d="M54.2269 22.0644C55.7004 20.8198 57.3627 18.4059 57.5894 17.5008C57.9294 17.7271 58.0805 18.4437 57.6271 19.2357C56.8338 20.6312 55.4359 21.8381 54.2269 22.8187C54.1891 23.7239 53.7735 24.7423 53.3958 25.5343C55.2092 24.3273 57.2494 22.517 58.1939 21.3101C59.4028 19.726 59.9318 18.1419 59.7051 16.5956C59.7807 14.8229 58.4961 13.0503 57.9672 12.5977C57.6271 14.5589 55.6626 17.8402 53.9247 19.726C54.0758 20.4049 54.2269 21.3101 54.2269 22.0644Z" fill="#A6AEBF"/>
<path fill-rule="evenodd" clip-rule="evenodd" d="M53.0933 33.4541C53.4334 33.869 53.8111 34.3593 54.0756 34.8119C55.4357 35.1136 57.1358 35.0382 57.1358 35.0382C57.1358 35.0382 57.0225 35.7548 56.0779 35.7925C55.6624 35.8302 54.3779 35.6039 53.8489 35.453C53.6223 35.5662 52.6399 35.7925 51.6199 35.9056C53.0555 36.396 55.1334 36.9617 56.4558 36.9617C56.5691 36.9617 56.7202 36.9617 56.8336 36.9617C58.9493 36.7731 60.0072 34.8496 60.0449 33.7181C59.4404 33.8312 58.3448 33.9067 57.2114 33.9067C56.2669 33.9067 54.4912 33.8312 53.0933 33.4541Z" fill="#A6AEBF"/>
<path fill-rule="evenodd" clip-rule="evenodd" d="M61.782 27.9856C59.893 28.9662 56.5683 30.0222 53.9615 29.9845C54.6038 30.3994 55.246 30.852 55.6615 31.2291C56.7572 31.1537 58.2307 30.8143 59.1374 30.4748C59.1374 30.6257 59.1752 31.3046 58.1551 31.644C57.475 31.8703 56.3794 31.8703 55.6238 31.908C54.9815 32.3229 54.037 32.7001 53.2437 32.9641C53.9615 33.0772 54.8682 33.1527 55.6994 33.1527C57.0973 33.1527 58.344 33.0018 59.1374 32.7378C59.8552 32.5115 62.1976 31.4555 61.782 27.9856Z" fill="#A6AEBF"/>
<path fill-rule="evenodd" clip-rule="evenodd" d="M51.6945 37.8669C52.4879 38.2441 53.319 38.4704 54.0369 38.5835C54.0369 38.5835 53.9236 39.2624 52.7901 39.1493C52.1856 39.0738 51.43 38.6213 51.2789 38.5081C50.7878 38.5835 49.7677 38.5458 49.3899 38.4704C50.5988 39.3379 52.5257 40.3562 54.0747 40.5071C54.1502 40.5071 54.2258 40.5071 54.3014 40.5071C55.9637 40.5071 57.2483 38.8475 57.5883 38.0555C55.9259 38.0178 53.0924 37.3389 51.3545 36.396C51.4678 36.7355 51.619 37.2635 51.6945 37.8669Z" fill="#A6AEBF"/>
<path fill-rule="evenodd" clip-rule="evenodd" d="M48.8615 40.0541C49.3149 40.5444 49.9949 40.8461 49.9949 40.8461C49.9949 40.8461 49.8061 41.1855 49.3904 41.1855C49.2393 41.1855 49.0882 41.1479 48.9371 41.0724C48.6348 40.9215 48.257 40.4689 48.257 40.4689C47.6903 40.4313 47.1991 40.3181 46.708 40.1672C47.577 41.261 49.0504 42.5811 50.5616 42.9582C50.7883 42.9959 51.015 43.0337 51.2417 43.0337C52.6395 43.0337 53.7352 42.0153 54.0752 41.3741C52.4884 41.1479 50.2216 39.9787 49.0126 38.7717C48.9748 39.2243 48.9371 39.7147 48.8615 40.0541Z" fill="#A6AEBF"/>
<path fill-rule="evenodd" clip-rule="evenodd" d="M38.5468 57.7054C39.3025 57.7054 39.8692 57.4036 40.1714 56.6116C39.1136 57.1019 37.9424 56.8379 35.8266 56.1968C35.8266 56.1968 34.9955 56.5362 34.5422 56.6116C35.8266 56.9888 37.6779 57.5922 37.9802 58.3088C38.0935 58.9123 37.7535 59.0254 37.7535 59.0254C36.9979 58.158 36.1667 57.6676 34.3155 57.1019C34.3155 57.4414 34.2399 57.6676 34.2399 57.6676C34.2399 57.6676 33.8621 57.7808 33.0309 57.63C33.7487 58.2334 35.4867 59.7043 35.7133 61.3261C35.8645 62.4199 35.1088 62.4576 35.1088 62.4576C34.9955 60.8359 34.3155 59.8175 32.7665 58.1202C32.7665 58.1202 32.502 58.4974 32.1619 58.7237C32.1619 58.7237 31.5953 58.6106 31.1419 58.3088C31.3308 60.4586 31.4441 65.5881 31.3308 66.4555C31.2552 67.0589 30.9152 67.2853 30.9152 67.2853C30.9152 67.2853 30.5751 67.0589 30.4996 66.4555C30.3862 65.6257 30.4996 60.4586 30.6885 58.3088C30.2352 58.6106 29.6684 58.7237 29.6684 58.7237C29.3284 58.5351 29.064 58.1202 29.064 58.1202C27.515 59.8175 26.8349 60.8359 26.7215 62.4576C26.7215 62.4576 25.9659 62.4199 26.1171 61.3261C26.306 59.7043 28.0816 58.2334 28.7995 57.63C27.9683 57.7808 27.5905 57.6676 27.5905 57.6676C27.5905 57.6676 27.515 57.4414 27.515 57.1019C25.6637 57.6676 24.8325 58.158 24.0769 59.0254C24.0769 59.0254 23.7369 58.9123 23.8503 58.3088C24.1525 57.5922 26.0037 56.9888 27.2883 56.6116C26.8349 56.5739 26.0037 56.1968 26.0037 56.1968C23.888 56.8379 22.679 57.1396 21.659 56.6116C21.9612 57.4036 22.5279 57.7054 23.2835 57.7054C22.3013 58.0826 21.3189 59.0254 21.0544 60.0438C21.7723 62.6839 24.0391 63.4759 24.0391 63.4759C23.4724 62.2313 23.6991 59.7043 27.1371 57.9317C25.0215 60.0438 24.1902 61.9296 24.757 63.7399C25.2859 65.3995 26.9482 66.0783 28.195 66.0783C27.2883 63.325 27.7039 60.8735 29.5551 58.8746C28.7617 61.0244 27.6283 67.7001 30.8774 68.7939C34.0888 67.7001 32.9931 61.0244 32.1997 58.8746C34.051 60.8359 34.4665 63.325 33.5598 66.0783C34.8066 66.0407 36.5067 65.3617 36.9979 63.7399C37.5646 61.9296 36.7334 60.0438 34.6177 57.9317C38.0557 59.6667 38.3202 62.1936 37.7157 63.4759C37.7157 63.4759 39.9826 62.6839 40.7004 60.0438C40.5115 59.0254 39.5292 58.0826 38.5468 57.7054Z" fill="#A6AEBF"/>
<path fill-rule="evenodd" clip-rule="evenodd" d="M15.7285 42.3556C15.8417 42.2047 15.9929 42.0161 16.1062 41.8275C15.9174 41.4881 15.7285 40.9978 15.5773 40.696C14.9728 41.9407 13.8772 43.223 12.9705 43.7133C13.4994 44.4676 15.1995 44.6185 16.2196 43.9397C16.9374 43.4871 17.353 42.6573 17.8819 41.639C17.5797 41.7521 17.1641 41.903 16.7485 41.9784C16.3329 42.8082 15.7662 42.4687 15.7285 42.3556Z" fill="#A6AEBF"/>
<path fill-rule="evenodd" clip-rule="evenodd" d="M7.94471 29.4944C6.77353 28.7023 5.94236 27.9857 5.48899 27.3068C4.50669 26.9297 3.22216 26.3262 2.57989 25.7982C1.71093 25.0815 1.9754 24.4027 2.08874 24.2895C2.84435 25.0815 4.50669 26.1753 5.67789 26.7033C6.39572 26.4016 7.41577 26.2131 8.4359 26.0999C5.48899 24.9307 2.31543 22.7432 0.690862 20.7065C0.350835 21.3477 -1.00927 24.4027 1.52203 26.8919C2.88213 28.212 5.64011 29.1172 7.94471 29.4944Z" fill="#A6AEBF"/>
<path fill-rule="evenodd" clip-rule="evenodd" d="M8.43525 25.5337C8.01967 24.7793 7.64182 23.7233 7.60408 22.8181C6.39507 21.8752 4.99719 20.6306 4.2038 19.2351C3.75043 18.4431 3.90155 17.7265 4.24158 17.5001C4.50604 18.3676 6.13061 20.8191 7.60408 22.0638C7.60408 21.2717 7.75516 20.3665 7.94405 19.6877C6.20617 17.8019 4.24158 14.5206 3.90155 12.5593C3.37262 13.0119 2.08809 14.8223 2.16365 16.5949C1.93696 18.1413 2.42812 19.7254 3.67487 21.3095C4.5816 22.5541 6.62175 24.3645 8.43525 25.5337Z" fill="#A6AEBF"/>
<path fill-rule="evenodd" clip-rule="evenodd" d="M5.37554 36.9617C6.69785 36.9617 8.77581 36.4336 10.2114 35.9056C9.19139 35.7925 8.20907 35.5285 7.98237 35.453C7.45344 35.6039 6.16893 35.8302 5.75333 35.7925C4.80883 35.7548 4.69548 35.0382 4.69548 35.0382C4.69548 35.0382 6.39561 35.1136 7.75568 34.8119C7.98237 34.397 8.39796 33.869 8.738 33.4541C7.34009 33.8312 5.56443 33.9067 4.61992 33.9067C3.4865 33.9067 2.42865 33.8312 1.78638 33.7181C1.82416 34.8496 2.9198 36.7731 4.99773 36.9617C5.11107 36.9617 5.22441 36.9617 5.37554 36.9617Z" fill="#A6AEBF"/>
<path fill-rule="evenodd" clip-rule="evenodd" d="M6.13168 33.1527C6.96285 33.1527 7.86962 33.0772 8.58744 32.9641C7.794 32.7001 6.81173 32.2852 6.20724 31.908C5.41385 31.908 4.356 31.8703 3.67595 31.644C2.65587 31.3423 2.69365 30.6634 2.69365 30.4748C3.5626 30.8143 5.03605 31.1537 6.16946 31.2291C6.58504 30.852 7.18953 30.3617 7.86962 29.9845C5.26273 30.0222 1.93804 28.9662 0.0490134 27.9856C-0.366573 31.4555 1.97582 32.5115 2.73143 32.7378C3.48705 33.0018 4.7338 33.1527 6.13168 33.1527Z" fill="#A6AEBF"/>
<path fill-rule="evenodd" clip-rule="evenodd" d="M10.5513 38.4701C10.4002 38.5833 9.64453 39.0359 9.04006 39.1113C7.90666 39.2622 7.79331 38.5456 7.79331 38.5456C8.51113 38.4701 9.3423 38.2061 10.1357 37.829C10.2113 37.2255 10.3624 36.6975 10.4757 36.3203C8.73782 37.3009 5.90429 37.9799 4.24194 37.9799C4.58196 38.7718 5.8665 40.4314 7.52888 40.4314C7.60442 40.4314 7.67996 40.4314 7.7555 40.4314C9.3423 40.2805 11.2313 39.2622 12.4403 38.3947C12.0625 38.5079 11.0424 38.5456 10.5513 38.4701Z" fill="#A6AEBF"/>
<path fill-rule="evenodd" clip-rule="evenodd" d="M15.1225 40.1678C14.6314 40.3187 14.1403 40.4318 13.5735 40.4696C13.5735 40.4696 13.1958 40.9221 12.8935 41.073C12.7424 41.1484 12.5912 41.1862 12.4401 41.1862C12.0246 41.1862 11.8357 40.8467 11.8357 40.8467C11.8357 40.8467 12.5535 40.5072 12.9691 40.0546C12.8935 39.7152 12.8179 39.2249 12.8179 38.7346C11.609 39.9415 9.34209 41.1107 7.75537 41.337C8.05761 41.9782 9.19101 42.9965 10.5888 42.9965C10.8155 42.9965 11.0422 42.9588 11.2689 42.9211C12.8179 42.5816 14.2536 41.2616 15.1225 40.1678Z" fill="#A6AEBF"/>
<path fill-rule="evenodd" clip-rule="evenodd" d="M30.311 3.77216C30.311 4.1116 30.5755 4.37562 30.8777 4.37562C31.2177 4.37562 31.4444 4.1116 31.4444 3.77216C31.4444 3.43272 31.1799 3.1687 30.8777 3.1687C30.5755 3.1687 30.311 3.47043 30.311 3.77216Z" fill="#A6AEBF"/>
<path fill-rule="evenodd" clip-rule="evenodd" d="M30.5 2.48926H31.2934L31.2178 1.54636L32.0868 1.62179V0.867468L31.2178 0.980614L31.2934 0H30.5L30.5756 0.980614L29.7444 0.867468V1.62179L30.5756 1.54636L30.5 2.48926Z" fill="#A6AEBF"/>
<path fill-rule="evenodd" clip-rule="evenodd" d="M27.7417 11.994C27.8172 12.0317 27.9305 12.0317 28.0439 12.0317H33.7865C33.8999 12.0317 34.0132 12.0317 34.0888 11.994C34.2777 11.9186 34.391 11.8054 34.4288 11.5791H27.4016C27.4394 11.8054 27.5528 11.9563 27.7417 11.994Z" fill="#A6AEBF"/>
<path fill-rule="evenodd" clip-rule="evenodd" d="M27.7799 11.1261H34.0514C34.127 11.1261 34.1648 11.0883 34.1648 11.0129V10.5981C34.1648 10.5226 34.127 10.4849 34.0514 10.4849H27.7799C27.7043 10.4849 27.6665 10.5226 27.6665 10.5981V11.0129C27.6665 11.0883 27.7043 11.1261 27.7799 11.1261Z" fill="#A6AEBF"/>
<path fill-rule="evenodd" clip-rule="evenodd" d="M34.6936 10.0704C34.8448 9.88181 35.676 8.29774 35.676 6.75137C35.676 5.35588 33.9003 4.56384 32.8424 4.52612C32.7291 6.56279 31.9357 9.73094 30.9156 9.73094C29.9333 9.73094 29.1022 6.56279 28.9888 4.52612C27.931 4.56384 26.1553 5.35588 26.1553 6.75137C26.1553 8.33541 26.9486 9.88181 27.1376 10.0704H34.6936Z" fill="#A6AEBF"/>
<path fill-rule="evenodd" clip-rule="evenodd" d="M30.9161 8.67379C31.4073 8.67379 32.0117 7.12747 32.1629 5.69426C32.1629 5.39254 31.6717 4.93994 30.9161 4.93994C30.1227 4.93994 29.6316 5.39254 29.6316 5.69426C29.7827 7.05204 30.425 8.67379 30.9161 8.67379Z" fill="#A6AEBF"/>
<path fill-rule="evenodd" clip-rule="evenodd" d="M45.1212 12.4844C45.159 12.4844 44.6679 11.3152 45.4234 11.0134C46.2169 10.7117 45.159 10.9003 45.7257 9.27849C46.4057 7.39269 47.8414 7.80755 47.8414 7.80755C46.8591 6.97783 46.0657 7.09097 45.499 7.50582C45.159 7.76989 44.6679 8.33562 44.29 9.46709C43.8367 10.9757 44.3656 12.3335 45.1212 12.4844Z" fill="#A6AEBF"/>
<path fill-rule="evenodd" clip-rule="evenodd" d="M48.823 9.69259C48.8985 12.0687 52.8655 13.0493 52.8655 13.0493C52.8655 13.0493 50.5609 11.3898 51.0142 10.1829C51.0142 10.1829 52.5254 10.8241 54.2634 10.5601C50.5609 9.80572 51.7698 8.63652 50.9009 7.69365C49.9941 6.71302 48.5207 6.59987 48.1807 6.56216C47.2739 6.52444 47.1984 6.52444 46.1028 6.75074C48.5585 6.82616 48.7852 8.10852 48.823 9.69259Z" fill="#A6AEBF"/>
<path fill-rule="evenodd" clip-rule="evenodd" d="M37.3383 16.4064L37.2627 16.1801C35.336 16.1801 34.127 14.7468 33.787 12.6348H31.8979C32.5024 15.5766 34.8826 16.4064 37.3383 16.4064Z" fill="#A6AEBF"/>
<path fill-rule="evenodd" clip-rule="evenodd" d="M48.2952 14.1433C48.8241 12.2575 47.8418 11.4278 47.8418 11.4278C47.5396 11.0883 46.0284 11.126 45.4995 11.5032C45.4995 11.5032 46.9351 11.4655 46.7084 13.5776C46.4817 15.652 43.6104 16.0668 42.817 16.18L42.7415 16.444C44.1394 16.444 47.7663 16.0291 48.2952 14.1433Z" fill="#A6AEBF"/>
<path fill-rule="evenodd" clip-rule="evenodd" d="M37.7166 16.4067H42.3258C42.3258 16.4067 42.4392 16.1426 42.5903 15.7278H37.4521C37.6032 16.1426 37.7166 16.4067 37.7166 16.4067Z" fill="#A6AEBF"/>
<path fill-rule="evenodd" clip-rule="evenodd" d="M40.0205 11.353C40.285 11.353 40.4738 11.1644 40.4738 10.9004C40.4738 10.6363 40.285 10.4478 40.0205 10.4478C39.7938 10.4478 39.5671 10.6363 39.5671 10.9004C39.5671 11.1266 39.7938 11.353 40.0205 11.353Z" fill="#A6AEBF"/>
<path fill-rule="evenodd" clip-rule="evenodd" d="M42.7789 15.1989C42.9678 14.5955 43.1944 13.6526 43.1944 13.2C43.1944 12.3703 42.7411 11.4651 41.1165 11.1633C41.1165 12.1817 40.6253 14.6332 40.0209 14.6332H39.9453C39.3408 14.6332 38.8496 12.1817 38.8496 11.1633C37.2251 11.4274 36.7717 12.3703 36.7717 13.2C36.7717 13.6526 36.9984 14.5955 37.1873 15.1989H42.7789Z" fill="#A6AEBF"/>
<path fill-rule="evenodd" clip-rule="evenodd" d="M40.021 13.9555C40.3232 13.9555 40.5878 12.7863 40.5878 12.1828C40.5878 11.881 40.3232 11.6548 40.021 11.6548C39.7188 11.6548 39.4543 11.881 39.4543 12.1828C39.4543 12.7863 39.7188 13.9555 40.021 13.9555Z" fill="#A6AEBF"/>
<path fill-rule="evenodd" clip-rule="evenodd" d="M39.7182 9.69321H40.3227L40.2471 8.93887L41.0028 9.01427V8.41087L40.2471 8.48627L40.3227 7.73193H39.7182L39.7938 8.48627L39.0759 8.41087V9.01427L39.7938 8.93887L39.7182 9.69321Z" fill="#A6AEBF"/>
<path fill-rule="evenodd" clip-rule="evenodd" d="M13.6873 7.80725C13.6873 7.80725 15.1229 7.35465 15.803 9.27818C16.3696 10.9 15.3119 10.6737 16.1052 11.0131C16.8986 11.3149 16.4075 12.4841 16.4075 12.4841H16.4453C17.2386 12.3332 17.7297 10.9754 17.2764 9.50445C16.8986 8.37298 16.4075 7.80725 16.0674 7.54325C15.4629 7.09066 14.6696 7.01522 13.6873 7.80725Z" fill="#A6AEBF"/>
<path fill-rule="evenodd" clip-rule="evenodd" d="M10.4769 10.1829C10.9303 11.3898 8.62569 13.0493 8.62569 13.0493C8.62569 13.0493 12.6304 12.0687 12.6682 9.69259C12.706 8.10852 12.9704 6.82616 15.3884 6.75074C14.2928 6.52444 14.2172 6.52444 13.3105 6.56216C12.9704 6.59987 11.497 6.71302 10.5903 7.69365C9.68355 8.63652 10.8925 9.80572 7.22778 10.5601C8.96566 10.8241 10.4769 10.1829 10.4769 10.1829Z" fill="#A6AEBF"/>
<path fill-rule="evenodd" clip-rule="evenodd" d="M24.2288 16.4064C26.6845 16.4064 29.0647 15.5766 29.6692 12.6348H27.7802C27.4402 14.7468 26.1934 16.1801 24.3044 16.1801L24.2288 16.4064Z" fill="#A6AEBF"/>
<path fill-rule="evenodd" clip-rule="evenodd" d="M15.9925 11.5033C15.4635 11.1261 13.9524 11.1261 13.6501 11.4279C13.6501 11.4279 12.7056 12.2199 13.1967 14.1434C13.7257 16.0292 17.3526 16.4441 18.7127 16.4441L18.6371 16.1801C17.8437 16.0669 14.9724 15.652 14.7457 13.5777C14.5946 11.4655 15.9925 11.5033 15.9925 11.5033Z" fill="#A6AEBF"/>
<path fill-rule="evenodd" clip-rule="evenodd" d="M19.2039 16.4067H23.8131C23.8131 16.4067 23.9265 16.1426 24.0776 15.7278H18.9395C19.0906 16.1426 19.2039 16.4067 19.2039 16.4067Z" fill="#A6AEBF"/>
<path fill-rule="evenodd" clip-rule="evenodd" d="M21.5078 11.353C21.7723 11.353 21.9612 11.1644 21.9612 10.9004C21.9612 10.6363 21.7723 10.4478 21.5078 10.4478C21.2434 10.4478 21.0544 10.6363 21.0544 10.9004C21.0544 11.1266 21.2811 11.353 21.5078 11.353Z" fill="#A6AEBF"/>
<path fill-rule="evenodd" clip-rule="evenodd" d="M24.2669 15.1989C24.4558 14.5955 24.6825 13.6526 24.6825 13.2C24.6825 12.3703 24.2291 11.4651 22.6046 11.1633C22.6046 12.1817 22.1134 14.6332 21.5089 14.6332H21.4334C20.8289 14.6332 20.3377 12.1817 20.3377 11.1633C18.7132 11.4274 18.2598 12.3703 18.2598 13.2C18.2598 13.6526 18.4865 14.5955 18.6753 15.1989H24.2669Z" fill="#A6AEBF"/>
<path fill-rule="evenodd" clip-rule="evenodd" d="M21.5084 13.9555C21.8106 13.9555 22.0751 12.7863 22.0751 12.1828C22.0751 11.881 21.8106 11.6548 21.5084 11.6548C21.2062 11.6548 20.9417 11.881 20.9417 12.1828C20.9417 12.7863 21.2062 13.9555 21.5084 13.9555Z" fill="#A6AEBF"/>
<path fill-rule="evenodd" clip-rule="evenodd" d="M21.2062 9.69321H21.8108L21.7352 8.93887L22.4908 9.01427V8.41087L21.7352 8.48627L21.8108 7.73193H21.2062L21.2819 8.48627L20.564 8.41087V9.01427L21.2819 8.93887L21.2062 9.69321Z" fill="#A6AEBF"/>
<path fill-rule="evenodd" clip-rule="evenodd" d="M46.2538 23.0442C46.2916 23.0066 46.2538 22.9688 46.2538 23.0442C46.1783 23.0442 45.4605 23.4591 43.8737 22.4408C42.2869 21.4225 41.0779 20.9699 40.4356 20.8567C40.4356 20.8567 39.8312 21.2716 39.3022 21.7619C40.7757 21.875 41.9468 22.7802 42.0602 23.1197C42.0602 23.1574 42.098 23.1574 42.098 23.1197C42.2491 22.6294 42.0602 22.2522 42.0602 22.2522C42.0602 22.2522 42.7403 22.6671 44.1004 23.4591C45.4227 24.2134 46.0271 23.3083 46.2538 23.0442Z" fill="#A6AEBF"/>
<path fill-rule="evenodd" clip-rule="evenodd" d="M37.5272 20.9315C37.9428 21.8744 37.9428 22.2516 37.9428 22.2516C38.8873 21.007 41.2298 20.2904 42.0609 17.424C42.1365 17.16 42.0609 17.0091 41.7965 17.0091C41.6832 17.0091 37.4895 17.0091 37.4895 17.0091C34.9959 17.1976 33.1447 16.745 32.1247 16.0662C31.9735 16.7828 32.9558 19.272 34.5426 19.7624C34.0892 20.4412 33.2203 21.1956 32.5024 21.1578C33.2959 21.7613 34.807 21.5727 36.0161 20.5166C36.1294 21.1956 35.9783 22.2139 35.8649 22.4779C36.4316 22.327 37.225 21.4218 37.5272 20.9315ZM40.4364 17.8766C40.7764 17.8766 40.7386 18.0651 40.663 18.2537C40.5497 18.4046 40.2474 18.9326 40.2474 18.9326C40.2474 18.9326 39.9075 18.5932 39.2652 18.3291C38.5851 18.0651 38.3962 18.0274 38.3962 17.8766H40.4364Z" fill="#A6AEBF"/>
<path fill-rule="evenodd" clip-rule="evenodd" d="M40.8525 20.4794C40.7769 20.5549 40.8147 20.5549 40.8903 20.5171C44.6305 19.5365 45.2728 21.4223 45.2728 21.4601C45.2728 21.5355 45.3105 21.5732 45.3483 21.4977C45.4239 21.4223 46.6706 20.0645 45.7639 18.8199C44.8572 17.5753 42.5903 17.6885 42.5903 17.6885C42.3637 18.7068 41.5325 19.9137 40.8525 20.4794ZM42.7415 18.6691C42.8548 18.4805 43.0059 18.1411 43.0059 18.1411C43.3082 18.1411 43.7994 18.2542 43.7994 18.5936C43.4593 18.5182 43.0437 18.5559 42.7415 18.6691Z" fill="#A6AEBF"/>
<path fill-rule="evenodd" clip-rule="evenodd" d="M34.3164 27.9094C34.4297 27.1928 34.9965 26.0991 35.3742 25.6842C35.752 26.5139 36.2054 27.306 37.7922 28.1735C37.1499 27.2305 37.0366 25.2316 37.6789 23.4212C37.6789 22.8932 37.4144 22.3652 37.3011 22.2143C36.8099 22.8555 36.0165 23.2327 34.9209 23.1195C34.9209 23.1195 35.4498 22.252 35.5254 21.5354C34.9965 22.0257 34.3919 22.2143 33.6741 22.1389C33.6741 22.1389 32.9563 23.5721 32.3518 25.1939C32.8429 26.0236 33.7874 27.4945 34.3164 27.9094Z" fill="#A6AEBF"/>
<path fill-rule="evenodd" clip-rule="evenodd" d="M15.5014 23.0442C15.4636 23.0066 15.5391 22.9688 15.5014 23.0442C15.5769 23.0442 16.2948 23.4591 17.8816 22.4408C19.4684 21.4225 20.6773 20.9699 21.3196 20.8567C21.3196 20.8567 21.924 21.2716 22.453 21.7619C20.9796 21.875 19.8084 22.7802 19.695 23.1197C19.695 23.1574 19.6572 23.1574 19.6572 23.1197C19.5062 22.6294 19.695 22.2522 19.695 22.2522C19.695 22.2522 19.015 22.6671 17.6549 23.4591C16.3326 24.2134 15.7281 23.3083 15.5014 23.0442Z" fill="#A6AEBF"/>
<path fill-rule="evenodd" clip-rule="evenodd" d="M25.8524 22.4407C25.7391 22.1767 25.588 21.1584 25.7014 20.4795C26.9103 21.5355 28.4216 21.7619 29.2149 21.1207C28.5349 21.1584 27.6281 20.3664 27.1748 19.7252C28.7616 19.2726 29.7439 16.7457 29.5928 16.0291C28.5726 16.7079 26.7592 17.1605 24.2279 16.9719C24.2279 16.9719 20.0721 16.9719 19.9209 16.9719C19.6564 16.9719 19.5809 17.1228 19.6564 17.3868C20.5254 20.2909 22.8678 20.9698 23.7745 22.2145C23.7745 22.2145 23.7745 21.8373 24.1901 20.8944C24.568 21.4224 25.3613 22.3276 25.8524 22.4407ZM23.4345 17.8771C23.4345 18.028 23.2456 18.0657 22.5656 18.3297C21.8855 18.5937 21.5833 18.9331 21.5833 18.9331C21.5833 18.9331 21.281 18.4051 21.1677 18.2543C21.0543 18.1034 21.0166 17.8771 21.3944 17.8771H23.4345Z" fill="#A6AEBF"/>
<path fill-rule="evenodd" clip-rule="evenodd" d="M19.1667 17.7268C19.1667 17.7268 16.8999 17.6513 15.9931 18.8582C15.0864 20.1028 16.3331 21.4229 16.4087 21.536C16.4465 21.6115 16.522 21.5738 16.4843 21.4984C16.4843 21.4229 17.1265 19.5371 20.8668 20.5554C20.9424 20.5932 20.9802 20.5932 20.9046 20.5178C20.2245 19.9143 19.4311 18.7074 19.1667 17.7268ZM19.0155 18.6696C18.7133 18.5565 18.3355 18.5188 17.9577 18.5942C17.9577 18.2548 18.4489 18.1416 18.7511 18.1416C18.7511 18.1794 18.9022 18.4811 19.0155 18.6696Z" fill="#A6AEBF"/>
<path fill-rule="evenodd" clip-rule="evenodd" d="M27.4767 27.9094C27.3635 27.1928 26.7967 26.0991 26.4189 25.6842C26.0411 26.5139 25.5877 27.306 24.001 28.1735C24.6433 27.2305 24.7565 25.2316 24.1143 23.4212C24.1143 22.8932 24.3788 22.3652 24.4921 22.2143C24.9832 22.8555 25.7767 23.2327 26.8723 23.1195C26.8723 23.1195 26.3433 22.252 26.2678 21.5354C26.7967 22.0257 27.4012 22.2143 28.119 22.1389C28.119 22.1389 28.8368 23.5721 29.4414 25.1939C28.9124 26.0236 28.0057 27.4945 27.4767 27.9094Z" fill="#A6AEBF"/>
<path d="M37.2256 28.8152C36.47 28.5135 35.5632 27.4574 35.3743 27.1557C35.1854 27.7214 34.8454 28.5889 34.7698 29.5696C34.1276 29.1169 32.6919 27.646 32.0118 26.0996C31.4829 27.5329 31.1429 29.1546 30.8784 30.3993C30.614 29.1923 30.274 27.5329 29.745 26.0996C29.065 27.6083 27.6293 29.1169 26.987 29.5696C26.8737 28.5512 26.5714 27.7214 26.3825 27.1557C26.1937 27.4574 25.2869 28.5135 24.5313 28.8152C24.9091 30.6633 23.3979 30.8519 23.3601 31.229H30.8784H38.3967C38.359 30.8141 36.8478 30.6633 37.2256 28.8152Z" fill="#A6AEBF"/>
<path d="M40.0203 44.2408V32.2093C40.0203 32.0207 39.8693 31.8699 39.6803 31.8699H22.1879C21.999 31.8699 21.8479 32.0207 21.8479 32.2093V44.1653V44.203V44.2784C21.8479 44.2784 21.8101 44.8819 22.1502 45.6362C22.5279 46.5037 24.0014 47.9369 25.9282 48.9175C28.6106 50.2753 30.1596 51.4068 30.953 52.0102C31.7464 51.4068 33.2954 50.313 35.9779 48.9175C37.9046 47.9369 39.3403 46.5037 39.7559 45.6362C40.0582 44.8819 40.0203 44.2784 40.0203 44.2408ZM34.1266 36.6221L34.1644 36.7352C34.3911 37.6027 34.5799 38.5079 34.6555 39.4131C35.3734 39.9788 36.0156 40.5823 36.5823 41.148C37.6402 39.9034 38.2069 38.7719 38.2447 37.8667H38.2069C37.7157 37.8667 37.3001 37.4518 37.3001 36.9615C37.3001 36.7729 37.3757 36.6221 37.4513 36.4712C36.9601 36.2072 36.3934 36.1695 35.9022 36.1695C35.4867 36.1695 35.0333 36.2072 34.5421 36.3203C34.5044 36.3203 34.5044 36.3203 34.4666 36.3203L34.3155 36.3581L34.3533 36.2449C34.3911 36.1318 34.4289 36.0186 34.4666 35.9055V35.8677H34.5044C35.94 35.6037 37.0734 35.7169 37.7913 36.1695C37.9424 36.0941 38.0936 36.0186 38.2447 36.0186C38.7358 36.0186 39.1514 36.4335 39.1514 36.9238C39.1514 37.2633 38.9625 37.565 38.6602 37.7159C38.698 38.7342 38.0558 40.0543 36.8468 41.412C36.9224 41.4875 36.9601 41.5629 37.0357 41.6384C37.0734 41.676 37.1113 41.7515 37.1491 41.7892L37.1868 41.8269L37.1491 41.8646C37.0735 41.94 37.0357 41.9777 36.9601 42.0909L36.9224 42.1286L36.8846 42.0909H36.8468C36.809 42.0532 36.7712 42.0155 36.7335 41.94C36.6957 41.8646 36.6201 41.8269 36.5823 41.7515C36.4312 41.9024 36.2801 42.0532 36.1289 42.2041L36.0156 42.3172C35.789 42.4681 35.6 42.5058 35.4111 42.4304L35.3356 42.3926L35.4111 42.355C35.7512 42.0155 36.0534 41.7515 36.3178 41.4498C35.8645 40.9594 35.2978 40.4314 34.7311 39.9411C34.7688 40.4314 34.7688 40.9594 34.7688 41.4498C34.7688 41.9024 34.7311 42.355 34.6933 42.9207V42.9584H34.6555C34.5799 42.9961 34.4666 43.0716 34.3155 43.147L34.2399 43.1847V43.0716C34.2777 42.4681 34.3155 41.94 34.3155 41.4498C34.3155 41.2611 34.3155 41.1103 34.3155 40.9217V40.8085C34.3155 40.4692 34.2399 39.4508 34.1266 38.7719H34.0888V38.7342C34.0133 38.1685 33.8999 37.6027 33.7488 37.0369V36.9993L33.7866 36.9615L33.8243 36.9238C33.8999 36.8484 33.9755 36.7729 34.0132 36.6975L34.1266 36.6221ZM28.195 35.2643C28.9129 33.5671 29.8952 32.6242 30.953 32.6242C32.0109 32.6242 32.9554 33.5671 33.711 35.2643V35.302L33.6732 35.3397C33.6354 35.3775 33.5221 35.4152 33.371 35.4906H33.3332L33.2954 35.4529C32.6531 33.9443 31.7842 33.0768 30.9152 33.0768C30.0463 33.0768 29.1774 33.9443 28.5351 35.4529L28.4973 35.4906H28.4595C28.3084 35.4152 28.195 35.3775 28.1572 35.3397L28.1195 35.302L28.195 35.2643ZM27.9306 35.7169C28.195 35.8677 28.8373 36.1695 29.5173 35.9809C30.1219 35.7923 30.9152 35.7923 30.9152 35.7923C30.9152 35.7923 31.7087 35.7923 32.3131 35.9809C32.9932 36.1695 33.6354 35.8677 33.8999 35.7169C33.9377 35.6792 34.0133 35.7169 33.9755 35.7923C33.8999 36.0941 33.6732 36.8107 32.5776 37.0747C31.5575 37.301 31.1041 38.4701 30.953 38.9227C30.953 38.9605 30.8397 38.9605 30.8397 38.9227C30.6885 38.4325 30.2352 37.301 29.2151 37.0747C28.1572 36.8107 27.8928 36.0941 27.8173 35.7923C27.855 35.7169 27.8928 35.6792 27.9306 35.7169ZM29.6685 38.621C29.8574 38.621 30.0085 38.5833 30.1596 38.4701C30.273 38.6587 30.3108 38.8096 30.3863 38.9605C30.1596 39.0736 29.9329 39.1491 29.6685 39.1491C28.9129 39.1491 28.2706 38.5079 28.2706 37.7535C28.2706 37.565 28.3084 37.4141 28.3839 37.2255C28.5351 37.301 28.6862 37.3764 28.8751 37.4518C28.8373 37.565 28.7995 37.6404 28.7995 37.7535C28.7995 38.2061 29.2151 38.621 29.6685 38.621ZM29.2907 37.7159C29.2907 37.6781 29.2907 37.6027 29.3284 37.565C29.5551 37.6781 29.744 37.829 29.8952 38.0176C29.8196 38.0553 29.744 38.093 29.6685 38.093C29.4796 38.1307 29.2907 37.9421 29.2907 37.7159ZM29.6685 39.5639C29.9707 39.5639 30.3108 39.4885 30.613 39.2999C30.6885 39.3753 30.8019 39.6393 30.9152 39.6393C31.0286 39.6393 31.1419 39.3376 31.2175 39.2999C31.5197 39.4885 31.8219 39.5639 32.162 39.5639C32.6531 39.5639 33.1065 39.3753 33.4465 39.0359V39.0736C33.6354 39.6393 33.6354 40.3559 33.5976 40.6577C33.5599 40.9594 33.4844 41.2612 33.4087 41.5252C33.2954 41.9024 33.182 42.1664 33.182 42.1664C33.182 42.1664 33.1443 42.2417 33.1065 42.3926C32.9932 42.6567 32.8043 43.147 32.5398 43.675C32.0109 43.3356 31.3686 43.147 30.6885 43.147C30.0841 43.147 29.5173 43.2978 28.9885 43.5618C28.7618 43.0716 28.6106 42.6567 28.4973 42.3926C28.4217 42.2417 28.4217 42.1664 28.4217 42.1664C28.4217 42.1664 28.2706 41.8269 28.1572 41.412C28.0817 41.1858 28.044 40.9218 28.0061 40.6577C27.9683 40.4314 27.9683 39.6771 28.1195 39.1113C28.1572 39.036 28.195 38.9605 28.195 38.8851C28.6106 39.3 29.1017 39.5639 29.6685 39.5639ZM32.162 38.621C32.6531 38.621 33.031 38.2439 33.031 37.7535C33.031 37.6404 32.9932 37.5273 32.9554 37.4518C33.1443 37.3764 33.2954 37.3387 33.4465 37.2255C33.5221 37.3764 33.5599 37.565 33.5599 37.7535C33.5599 38.5079 32.9176 39.1491 32.162 39.1491C31.8976 39.1491 31.6709 39.0736 31.4442 38.9605C31.482 38.8473 31.5575 38.6587 31.6709 38.4701C31.8219 38.5456 31.9731 38.621 32.162 38.621ZM31.9353 38.0553C32.0864 37.8667 32.2753 37.6781 32.5398 37.6027C32.5776 37.6404 32.5776 37.7159 32.5776 37.7535C32.5776 37.9799 32.3887 38.1307 32.1998 38.1307C32.0864 38.1307 32.0109 38.093 31.9353 38.0553ZM23.5858 36.0186C23.7747 36.0186 23.9258 36.0941 24.0769 36.1695C24.5303 35.8677 25.1726 35.7169 25.966 35.7169C26.3815 35.7169 26.8349 35.7546 27.3261 35.8301H27.4017V35.8677C27.4394 35.9432 27.4772 36.0941 27.515 36.2072L27.5528 36.3203L27.4017 36.2827C27.3639 36.2827 27.2883 36.2449 27.2505 36.2449C26.7971 36.1695 26.3438 36.1318 25.966 36.1318C25.4748 36.1318 24.8326 36.2072 24.3792 36.4712C24.4548 36.6221 24.5303 36.7729 24.5303 36.9238C24.5303 37.4141 24.1147 37.829 23.6236 37.829C23.6613 38.6965 24.2281 39.8657 25.2859 41.1103C25.8526 40.5068 26.4949 39.9411 27.2127 39.3753C27.2883 38.4701 27.4772 37.6027 27.7039 36.7352L27.7416 36.6221L27.8173 36.6975C27.8928 36.7729 27.9306 36.8484 28.0061 36.9238C28.044 36.9615 28.044 36.9615 28.044 36.9615L28.0817 36.9993V37.0369C27.9306 37.565 27.8173 38.1307 27.7416 38.7342V38.7719H27.7039C27.6284 39.1868 27.5906 39.7526 27.5528 40.3559C27.515 40.7709 27.515 41.1103 27.515 41.4498C27.515 41.8646 27.515 42.3172 27.5906 42.8452V42.9207L27.515 42.883C27.4017 42.8452 27.3261 42.8075 27.2127 42.8075H27.175V42.7698C27.1372 42.3926 27.1372 41.9024 27.1372 41.4498C27.1372 40.9594 27.175 40.4692 27.175 39.9411C26.5705 40.4314 26.0416 40.9218 25.5882 41.412C25.966 41.8269 26.4572 42.2795 26.9861 42.7321L27.0616 42.8075L26.9483 42.8452C26.7594 42.883 26.5705 42.883 26.4194 42.8075C25.966 42.3926 25.5882 42.0532 25.3238 41.7515C25.2481 41.8269 25.2104 41.9024 25.1348 41.9777L25.0971 42.0532C25.0214 42.0909 24.9082 42.1286 24.8326 42.1664L24.7948 42.2041L24.757 42.1664C24.7192 42.1286 24.7192 42.1286 24.6815 42.0909C24.6437 42.0909 24.6437 42.0532 24.6059 42.0532L24.5681 42.0155L24.6059 41.9777C24.757 41.7892 24.9082 41.6006 25.0214 41.4498C23.8503 40.0919 23.208 38.7719 23.2458 37.7535C22.9435 37.6027 22.7168 37.301 22.7168 36.9238C22.6791 36.4335 23.0947 36.0186 23.5858 36.0186ZM33.8621 47.1448C33.3332 48.5781 32.6154 49.5587 31.8219 49.9736C31.7464 50.3884 31.3686 50.7279 30.9152 50.7279C30.4618 50.7279 30.0841 50.3884 30.0085 49.9736C29.2151 49.5587 28.5351 48.5781 27.9683 47.1448L27.9306 47.1072L28.3462 46.994V47.0317C28.7995 48.2386 29.3662 49.1061 30.0085 49.521C30.1219 49.1815 30.4618 48.9175 30.8774 48.9175C31.2931 48.9175 31.5953 49.1815 31.7464 49.521C32.3509 49.1061 32.9554 48.2764 33.4087 47.0694V47.0317H33.4465C33.5599 47.0317 33.6354 47.0694 33.7488 47.0694H33.8243L33.8621 47.1448ZM30.1219 47.0694C30.1219 46.7677 30.2352 46.0134 30.3486 45.7116C30.4997 45.5985 30.6885 45.5608 30.9152 45.5608C31.1419 45.5608 31.3686 45.6362 31.5575 45.7871C31.6709 46.0511 31.7464 46.8054 31.7464 47.0694C31.7464 47.3712 31.0664 47.5974 30.953 47.5974C30.8019 47.5974 30.1219 47.3712 30.1219 47.0694ZM39.3781 44.1653C39.3403 44.2408 39.2647 44.2784 39.1892 44.3162C39.1136 44.3539 39.0003 44.3539 38.8869 44.3916H38.8114C38.6602 44.3916 38.5469 44.3539 38.4335 44.3162C38.3958 44.2784 38.358 44.2784 38.3202 44.2408C38.0936 44.2784 37.6024 44.4293 37.4513 44.5048C37.5268 44.5048 38.1313 44.5424 38.6224 44.9196C38.8114 45.0328 39.227 45.1459 39.3781 45.1459C39.3781 45.2214 38.6602 45.7494 37.338 45.4476L36.9979 45.3722C36.3934 45.1836 35.7512 45.1459 35.1467 45.1836C35.2222 45.2214 35.2978 45.2214 35.3356 45.2214C35.5245 45.2968 35.6756 45.3345 35.8267 45.4099C35.8645 45.4099 35.8645 45.4476 35.8645 45.4476C35.9022 45.4476 35.94 45.4476 35.9779 45.4476C36.0534 45.4476 36.0912 45.4854 36.1667 45.4854C36.2423 45.5231 36.3178 45.5608 36.3934 45.5985C36.5068 45.674 36.5823 45.7116 36.6201 45.8248C36.6579 45.8625 36.6957 45.938 36.6957 45.9757C36.7335 46.0888 36.6957 46.202 36.6201 46.3151C36.3556 46.6168 36.0912 46.6168 35.8267 46.3151C35.8267 46.3151 35.789 46.2774 35.789 46.2397C35.7512 46.202 35.6378 46.0888 35.6 45.938C35.6 45.9002 35.5623 45.8625 35.5623 45.8248H35.5245C35.4111 45.7116 35.2978 45.6362 35.1844 45.5985C34.92 45.4854 34.6933 45.4099 34.4666 45.3722C34.3911 45.3722 34.3533 45.3722 34.2777 45.3345C34.5044 45.4854 34.6933 45.6362 34.8066 45.7871C34.8066 45.7871 34.8066 45.8248 34.8444 45.8248C34.9955 46.0511 34.9577 46.2397 35.0333 46.4282C35.2222 46.8808 35.3356 46.9186 35.5245 47.0694C35.3356 47.1449 34.2777 47.1072 33.711 46.3906C33.6732 46.3528 33.6732 46.3151 33.6354 46.2774C33.5221 46.0134 33.4087 45.7116 33.371 45.4854C33.2954 45.2591 33.4087 45.0705 33.2954 44.995C33.182 44.9196 33.1065 44.995 33.1065 44.995C33.1065 44.995 33.1065 44.995 33.0688 45.0328L33.031 45.0705C32.9932 45.1082 32.9554 45.1459 32.9554 45.1836L32.9176 45.2214C32.8798 45.2591 32.8798 45.2968 32.8798 45.2968L32.8421 45.3345C32.8421 45.3722 32.8043 45.3722 32.8043 45.3722L32.7665 45.4099C32.7287 45.4476 32.6909 45.4476 32.6531 45.4099L32.6154 45.4476C32.6154 45.4476 32.5776 45.4854 32.5398 45.4854C32.4642 45.5231 32.3887 45.5231 32.3509 45.5231C32.2753 45.5231 32.1998 45.4854 32.1998 45.4099C32.1998 45.3722 32.1998 45.3345 32.2375 45.2968H32.1998C32.162 45.2968 32.1243 45.3345 32.0864 45.3345C32.0486 45.3345 31.9731 45.2968 31.9353 45.2591C31.8976 45.2214 31.8976 45.1459 31.9353 45.1082C31.9731 45.0705 31.9353 45.0705 31.9353 45.0705C31.8976 45.1082 31.8219 45.1459 31.7842 45.1836C31.7464 45.2214 31.6709 45.1836 31.6331 45.1836C31.5953 45.1459 31.5575 45.1082 31.5953 45.0328V44.9574V44.9196V44.8819C31.5953 44.8819 31.5953 44.8819 31.5953 44.8442H31.5575H31.5197C31.5197 44.8442 31.5197 44.8442 31.482 44.8442C31.3686 44.8065 31.2553 44.8065 31.1797 44.7688H31.1419C31.1419 44.7688 31.1419 44.7688 31.1041 44.7688C31.0286 44.8065 30.9152 44.8442 30.8019 44.8819C30.8019 44.8819 30.8019 44.8819 30.7642 44.8819H30.7263C30.6885 44.8819 30.6885 44.8819 30.6508 44.9196C30.6508 44.9196 30.6508 44.8819 30.613 44.8819C30.613 44.8819 30.613 44.8442 30.5752 44.8442C30.613 44.8065 30.613 44.7688 30.613 44.7688V44.731C30.613 44.731 30.613 44.731 30.5752 44.731C30.5375 44.731 30.4618 44.731 30.4241 44.731C30.4241 44.7688 30.4241 44.8065 30.3863 44.8442L30.3486 44.8819C30.3486 44.9196 30.3486 44.9196 30.3486 44.9574V44.995V45.0328C30.3486 45.0705 30.3486 45.1459 30.3108 45.1836C30.273 45.2214 30.1974 45.2214 30.1596 45.2214C30.1219 45.2214 30.1219 45.1836 30.0841 45.1836C30.0463 45.1836 30.0463 45.1459 30.0085 45.1459C30.0085 45.1459 30.0085 45.1459 29.9707 45.1459C29.9707 45.1459 29.9707 45.1459 29.933 45.1082C29.933 45.1082 29.9329 45.0705 29.8952 45.0705V45.1082C29.8952 45.1082 29.8952 45.1082 29.8952 45.1459V45.1836C29.8952 45.1836 29.933 45.2214 29.933 45.2591C29.9707 45.2968 29.933 45.3722 29.933 45.4099C29.8952 45.4476 29.8196 45.4854 29.7818 45.4854C29.7818 45.4854 29.744 45.4854 29.7063 45.4854C29.6685 45.4854 29.6685 45.4476 29.6307 45.4476C29.6685 45.4854 29.6685 45.5231 29.6685 45.5985C29.6685 45.674 29.5929 45.7116 29.5551 45.7116C29.5173 45.7116 29.4418 45.7116 29.4041 45.7116H29.3662L29.3284 45.674C29.2907 45.6362 29.2907 45.6362 29.2529 45.6362C29.2151 45.674 29.1774 45.674 29.1396 45.6362L29.1017 45.5985C29.064 45.5608 29.064 45.5231 29.0262 45.4854V45.4476C29.0262 45.4476 29.0262 45.4476 29.0262 45.4099V45.3722L28.9885 45.3345L28.9507 45.2968C28.7995 45.1459 28.5728 45.674 28.5728 45.674C27.8928 47.0694 26.3438 47.2957 26.3438 47.2203C26.3438 47.1826 26.6839 47.0317 26.7971 46.5414C26.8727 46.2397 26.8727 46.1642 27.0238 45.9002C27.0616 45.8625 27.0616 45.8248 27.0994 45.7871C27.2127 45.6362 27.3639 45.5231 27.515 45.4099C27.4394 45.4099 27.4017 45.4099 27.3261 45.4476C27.0994 45.4854 26.8727 45.5608 26.6082 45.674C26.4949 45.7116 26.3815 45.7871 26.2682 45.9002H26.2305C26.2305 45.938 26.2305 45.9757 26.1927 46.0134C26.1549 46.0888 26.1171 46.202 26.0416 46.2774C26.0416 46.3151 26.0038 46.3151 25.966 46.3528L25.9282 46.3906C25.6637 46.6923 25.3993 46.6923 25.1348 46.4282C25.0971 46.3906 25.0971 46.3528 25.0971 46.3151C25.0593 46.2397 25.0593 46.1266 25.0593 46.0511C25.0971 45.9757 25.1348 45.9002 25.1726 45.8248C25.2104 45.7494 25.286 45.7116 25.3615 45.674C25.437 45.6362 25.5126 45.5985 25.5882 45.5608C25.626 45.5608 25.7015 45.5231 25.7393 45.5231C25.7771 45.5231 25.8149 45.5231 25.8526 45.5231C25.8526 45.4854 25.8904 45.4854 25.8904 45.4854C25.966 45.4476 26.0416 45.4099 26.1171 45.3722C26.1927 45.3345 26.2683 45.2968 26.3438 45.2591C26.3815 45.2591 26.4194 45.2214 26.4572 45.2214C25.8526 45.1836 25.2859 45.2591 24.6815 45.4099C24.5681 45.4476 24.4548 45.4476 24.3414 45.4854C23.6236 45.674 22.2635 45.2591 22.2635 45.1836C22.2635 45.1082 22.6036 45.1082 23.0191 44.8819C23.2836 44.731 23.4725 44.5802 23.6992 44.5424C23.888 44.5048 24.2659 44.467 24.3414 44.467C24.1903 44.3916 23.548 44.2784 23.3214 44.2784C23.2836 44.3162 23.2458 44.3162 23.208 44.3539C23.0569 44.4293 22.9058 44.4293 22.7546 44.4293C22.6413 44.4293 22.5658 44.3916 22.4902 44.3916C22.4146 44.3539 22.3391 44.3162 22.3012 44.2408C22.2635 44.1653 22.188 44.0522 22.2257 43.9013C22.3012 43.5996 22.5658 43.4487 22.9435 43.5618C23.1324 43.6373 23.2836 43.7127 23.3591 43.7882C23.3969 43.8258 23.3969 43.8258 23.3969 43.8636C23.6236 43.9013 23.888 43.9767 24.1525 44.0899C24.417 44.203 24.6437 44.2784 24.8326 44.3162C24.7948 44.2784 24.7192 44.2408 24.6437 44.203C24.6059 44.1653 24.5303 44.1276 24.4548 44.1276C24.3792 44.0899 24.3036 44.0522 24.2281 44.0144C23.8125 43.8258 23.3969 43.5996 23.0947 43.2601C22.868 42.9961 22.7924 42.8075 22.7546 42.5812C22.6791 41.94 22.3769 41.676 22.4146 41.6006C22.4524 41.5251 23.4725 42.0155 23.8125 42.4304C24.0392 42.6944 24.1147 42.9207 24.1525 43.1092V43.147C24.1903 43.3733 24.4548 43.5618 24.757 43.7882C24.7948 43.8258 24.8326 43.8636 24.8704 43.8636C24.7948 43.7504 24.7192 43.6373 24.6437 43.5242C24.6437 43.4864 24.6437 43.4864 24.6437 43.4487C24.6059 43.411 24.5681 43.411 24.5681 43.3733C24.5303 43.3356 24.4925 43.2978 24.4548 43.2601C24.417 43.1847 24.3792 43.1092 24.3414 43.0338C24.2659 42.8075 24.2281 42.6566 24.3036 42.5058C24.3414 42.4304 24.417 42.355 24.5681 42.3172C24.8704 42.2418 25.0593 42.3926 25.1726 42.8075C25.1726 42.883 25.1726 42.9583 25.1726 43.0338C25.1726 43.1092 25.1726 43.1847 25.1348 43.2224C25.1348 43.2601 25.1348 43.2601 25.0971 43.2978L25.1348 43.3356C25.2859 43.7882 25.6637 44.1653 26.0416 44.3916C25.5504 43.939 25.2481 42.9961 25.3238 42.9584C25.3993 42.9207 25.8526 43.1847 26.2682 43.3733C26.4949 43.4864 26.7216 43.5618 26.9105 43.7127C27.0616 43.7882 27.175 43.9013 27.2883 44.0144C27.4017 44.1276 27.4772 44.203 27.5906 44.2784L27.6283 44.3162C27.7039 44.3916 27.7795 44.467 27.8173 44.5048C27.855 44.5424 27.9306 44.5802 27.9683 44.6179C28.0817 44.6933 28.3084 44.6179 28.3084 44.6179C28.3462 44.6179 28.4217 44.5802 28.4973 44.5802C28.4973 44.5802 28.4973 44.5424 28.5351 44.5424C28.5728 44.5048 28.5728 44.5048 28.5728 44.5048C28.6484 44.4293 28.724 44.3916 28.7995 44.3916C28.7995 44.3539 28.7995 44.3539 28.7995 44.3162C28.8373 44.203 28.9129 44.0899 29.0262 44.0522C29.064 44.0522 29.1017 44.0144 29.1396 44.0144C29.1774 44.0144 29.1774 44.0144 29.2151 44.0144C29.2529 44.0144 29.2529 44.0144 29.2529 44.0144C29.2907 44.0144 29.2907 44.0144 29.3284 44.0144C29.3662 43.9767 29.4041 43.9013 29.4418 43.8636C29.4418 43.8636 29.4418 43.8636 29.4796 43.8636C29.6307 43.7882 29.8196 43.8258 29.9707 43.939C30.0463 44.0144 30.0841 44.0899 30.0841 44.1653C30.0841 44.1653 30.0841 44.203 30.0841 44.2408C30.0841 44.2784 30.0841 44.3162 30.0841 44.3539C30.0841 44.3916 30.0841 44.4293 30.1219 44.467C30.2352 44.467 30.3108 44.467 30.4241 44.467H30.4618C30.4618 44.467 30.4618 44.467 30.4996 44.467C30.5375 44.467 30.613 44.467 30.6508 44.5048C30.7263 44.5048 30.8019 44.5424 30.8774 44.5424C30.953 44.5048 30.9908 44.5048 31.0664 44.5048C31.1041 44.5048 31.1419 44.467 31.2175 44.467C31.2175 44.467 31.2175 44.467 31.2553 44.467H31.293C31.3308 44.467 31.3686 44.467 31.4064 44.467C31.4064 44.3916 31.4442 44.3162 31.4442 44.2408C31.4442 44.1653 31.4442 44.0899 31.482 44.0522C31.482 44.0144 31.5197 43.9767 31.5575 43.9767C31.5953 43.939 31.5953 43.939 31.6331 43.9013C31.7464 43.8258 31.8976 43.7882 32.0486 43.8636L32.0864 43.9013C32.1243 43.939 32.162 43.9767 32.1998 44.0522C32.2375 44.0522 32.3131 44.0522 32.3509 44.0522C32.3887 44.0522 32.4265 44.0522 32.4265 44.0899C32.4642 44.0899 32.4642 44.0899 32.4642 44.1276C32.5776 44.203 32.6531 44.2784 32.6909 44.3916C32.6909 44.3916 32.6909 44.3916 32.6909 44.4293H32.7287C32.7665 44.4293 32.8043 44.4293 32.8421 44.4293H32.8798C32.8798 44.4293 33.2198 44.4293 33.3332 44.467L33.711 44.5048C33.7488 44.467 33.7866 44.4293 33.8243 44.3916C33.8999 44.3162 34.0133 44.203 34.1266 44.0899C34.2399 43.9767 34.3533 43.9013 34.5044 43.7882C34.7311 43.6373 34.9955 43.5996 35.2222 43.4864C35.94 43.1847 36.0156 42.7698 36.0912 42.8075C36.1667 42.8452 35.9022 44.0522 35.4111 44.467C35.789 44.203 36.1667 43.8636 36.3178 43.411C36.3178 43.411 36.3179 43.3733 36.3556 43.3733C36.3556 43.3356 36.3178 43.3356 36.3178 43.2978C36.3178 43.2224 36.2801 43.1847 36.2801 43.1092C36.2801 43.0338 36.2801 42.9584 36.2801 42.883C36.3934 42.5058 36.5823 42.3172 36.8846 42.3926C37.0735 42.4304 37.1491 42.5435 37.1868 42.5812C37.2623 42.7321 37.2623 42.9207 37.1491 43.1092C37.1113 43.1847 37.0734 43.2601 37.0357 43.3356C36.9979 43.3733 36.9601 43.4487 36.9224 43.4487C36.8846 43.4864 36.8468 43.4864 36.809 43.5242C36.809 43.5618 36.809 43.5618 36.809 43.5996C36.7335 43.7127 36.6579 43.8258 36.5445 43.9767C36.5823 43.939 36.6579 43.9013 36.6957 43.8636C37.0357 43.5996 37.2623 43.3733 37.3001 43.147C37.338 42.9584 37.4135 42.7321 37.6402 42.4681C37.9802 42.0909 38.0558 41.9778 38.4714 41.7892C38.5469 41.7515 39.0381 41.6384 39.0758 41.676C39.1136 41.7515 38.6981 41.9024 38.5847 42.619C38.5092 42.8452 38.4714 43.1847 38.2447 43.4487C37.9424 43.7882 37.6779 43.8636 37.2623 44.0522L37.1868 44.0899C37.1113 44.1276 37.0357 44.1653 36.9224 44.203C36.809 44.2784 36.6957 44.3162 36.6201 44.3539C36.809 44.3162 37.0735 44.2408 37.338 44.1276C37.6024 44.0144 37.8291 43.939 38.0936 43.9013C38.0936 43.8636 38.1313 43.8636 38.1691 43.8258C38.2447 43.7504 38.3958 43.6373 38.5847 43.5996C38.9625 43.4864 39.227 43.6373 39.3025 43.939C39.4537 44.0144 39.4159 44.1276 39.3781 44.1653Z" fill="#A6AEBF"/>
<path fill-rule="evenodd" clip-rule="evenodd" d="M55.5099 27.2307C54.4899 26.8913 52.4498 26.665 51.3163 26.665C53.6965 25.0433 53.7721 21.5734 53.092 19.0464C52.5631 21.0831 51.1274 22.7049 50.1452 23.7232C50.2207 24.7038 49.9185 26.4387 49.3895 27.4948C50.1829 27.7965 51.0897 28.2491 51.7319 28.7394C51.3163 29.2674 50.3718 30.1349 49.7673 30.5875C50.2585 31.1155 51.0897 32.0584 51.4674 32.5864C50.9007 33.0013 49.7296 33.4539 49.125 33.6802C49.4273 34.2837 49.8807 35.4151 49.994 36.2071C49.314 36.3203 48.3317 36.3957 47.3493 36.3957C47.3871 37.1501 47.3116 38.2815 47.1605 38.9981C46.2159 38.9227 45.1203 38.5455 44.6291 38.2815C44.3647 39.2999 43.7224 40.3182 43.6846 40.3559C42.7779 39.3753 41.9468 38.9981 41.1534 38.9981V38.357C41.9468 38.3193 42.7779 38.6587 43.4202 39.2999C43.6846 38.7719 44.0247 37.8289 44.138 37.3009C44.7425 37.6027 45.6493 37.9421 46.4426 38.0553C46.5182 37.3763 46.5938 36.4335 46.4804 35.6791C47.2738 35.7546 48.1805 35.7546 49.0495 35.6037C48.8983 34.9625 48.3695 33.8688 47.9916 33.2653C48.8228 33.039 49.8051 32.6619 50.2962 32.3601C49.8807 31.7944 49.125 30.9647 48.6339 30.5121C49.2384 30.0972 50.1452 29.3429 50.5229 28.8903C49.9185 28.4754 49.0117 28.0605 48.2939 27.7588C49.2762 26.3633 49.5406 23.5723 49.314 22.3277C48.4072 25.2695 45.8382 27.4193 44.2892 28.3999C43.5713 28.8525 43.8358 29.72 44.0625 30.0972C45.7248 32.8505 43.7224 35.0757 41.1156 35.0757V31.1532C41.1156 30.9647 40.9644 30.7761 40.7378 30.7761H30.9148H30.8771H21.0163C20.8274 30.7761 20.6386 30.9269 20.6386 31.1532V35.0757C18.0316 35.0757 16.0293 32.8505 17.6917 30.0972C17.9184 29.72 18.1828 28.8525 17.465 28.3999C15.8782 27.4193 13.3469 25.2695 12.4402 22.3277C12.2513 23.5723 12.478 26.3633 13.4602 27.7588C12.7424 28.0228 11.8357 28.4754 11.2311 28.8903C11.609 29.3429 12.5157 30.0972 13.1202 30.5121C12.629 30.9647 11.8734 31.7944 11.4578 32.3601C11.9868 32.6619 12.9691 33.0767 13.7625 33.2653C13.3847 33.8688 12.8557 34.9248 12.7046 35.6037C13.5736 35.7923 14.4803 35.7923 15.2737 35.6791C15.1604 36.4335 15.2359 37.3763 15.3114 38.0553C16.1427 37.9421 17.0116 37.6027 17.6161 37.3009C17.7294 37.8289 18.0316 38.7719 18.3339 39.2999C18.9762 38.6964 19.8074 38.357 20.6008 38.357V38.9981C19.8451 38.9981 18.9762 39.3753 18.0694 40.3559C18.0316 40.3182 17.3894 39.2999 17.1249 38.2815C16.6338 38.5079 15.5381 38.9227 14.5936 38.9981C14.4803 38.3193 14.3669 37.1501 14.4047 36.3957C13.3847 36.3957 12.4402 36.3203 11.7601 36.2071C11.8734 35.4151 12.3268 34.3213 12.629 33.6802C12.0246 33.4539 10.8156 33.0013 10.2866 32.5864C10.6645 32.0207 11.4956 31.0778 11.9868 30.5875C11.4201 30.1349 10.4756 29.2674 10.0222 28.7394C10.6645 28.2491 11.609 27.7965 12.3646 27.4948C11.8357 26.4387 11.4956 24.7038 11.609 23.7232C10.6267 22.7049 9.19103 21.0831 8.6621 19.0464C7.94428 21.5734 8.05762 25.0433 10.4378 26.665C9.30437 26.7027 7.26419 26.9291 6.24414 27.2307C6.92419 28.0605 8.77544 29.2674 9.83331 29.7955C9.00214 30.1349 7.45315 30.9269 6.84863 31.5304C7.67977 32.0207 9.45546 32.6241 10.3244 32.8127C9.83331 33.2276 8.81325 34.3591 8.4354 35.0003C9.15322 35.2265 10.5889 35.4151 11.4956 35.4529C11.1934 36.0563 10.8534 37.1501 10.7778 37.8667C11.2311 37.9044 12.7424 37.8289 13.498 37.6781C13.4225 38.2815 13.4602 39.413 13.5736 39.9033C14.3292 39.7902 15.3871 39.4885 15.8782 39.2999C16.0293 39.8656 16.5205 41.0348 16.7093 41.2988C17.0494 41.2234 17.3894 41.1479 17.7672 40.9971C18.7495 40.6577 19.8829 41.0725 20.2985 42.0154C21.0163 43.6749 20.7518 45.6362 19.354 45.2213C17.7294 45.4853 18.8629 47.4842 17.9561 48.1254C19.2028 48.9552 19.5807 46.9562 21.0919 47.2957C20.9408 48.05 20.9408 49.37 21.0541 49.9358C21.5453 49.5586 22.2631 49.2569 22.7165 49.2192C22.6031 49.6718 22.5276 50.6901 22.6787 51.3313C23.0187 51.105 25.0211 50.577 25.0211 50.577C25.0211 50.577 24.2277 52.1988 24.7189 53.7451C24.9833 53.9337 26.8345 53.0662 26.8723 52.5005C26.9101 53.1416 26.1545 54.5748 24.9455 54.8766C26.23 56.1212 27.4012 56.0835 27.5524 56.0835C27.7413 56.0835 27.9302 56.0458 28.0813 55.9704C27.968 56.3475 27.9302 56.8001 28.0057 57.1018C28.0813 57.1018 28.1569 57.1018 28.2324 57.1018C28.5725 57.1018 28.8369 57.0641 29.1014 56.9132C29.1391 57.2527 29.2903 57.6676 29.5547 57.9316C29.5925 57.9693 29.6681 58.0448 29.7059 58.0824C30.0081 58.0824 30.7259 57.743 30.8771 57.5167C31.0282 57.743 31.746 58.0824 32.0483 58.0824C32.1238 58.0448 32.1616 58.007 32.1994 57.9316C32.4639 57.6676 32.615 57.2527 32.6528 56.9132C32.9172 57.0264 33.1817 57.1018 33.5217 57.1018C33.5973 57.1018 33.6728 57.1018 33.7484 57.1018C33.824 56.8001 33.7862 56.3098 33.6728 55.9704C33.824 56.0458 34.0129 56.0835 34.2017 56.0835C34.3906 56.0835 35.524 56.1212 36.8086 54.8766C35.6374 54.6126 34.844 53.1794 34.8818 52.5005C34.9196 53.0662 36.7708 53.9337 37.0353 53.7451C37.5264 52.1988 36.7331 50.577 36.7331 50.577C36.7331 50.577 38.7354 51.105 39.0754 51.3313C39.2266 50.6901 39.151 49.6718 39.0377 49.2192C39.491 49.2569 40.2089 49.5586 40.7 49.9358C40.8134 49.37 40.8511 48.05 40.6622 47.2957C42.1735 46.9562 42.5512 48.9552 43.798 48.1254C42.8913 47.4842 43.9869 45.4853 42.4001 45.2213C41.0022 45.6362 40.7378 43.6749 41.4556 42.0154C41.8712 41.0725 43.0046 40.6577 43.9869 40.9971C44.3269 41.1103 44.7048 41.2234 45.0447 41.2988C45.2337 41.0348 45.7248 39.8279 45.8759 39.2999C46.3671 39.4885 47.425 39.7902 48.1805 39.9033C48.2939 39.413 48.2939 38.3193 48.2561 37.6781C49.0117 37.8289 50.5229 37.9421 50.9763 37.8667C50.9007 37.1501 50.5607 36.094 50.2585 35.4529C51.1652 35.4151 52.6009 35.2265 53.3187 35.0003C52.9409 34.3591 51.9208 33.2276 51.4296 32.8127C52.2608 32.6241 54.0743 32.0584 54.9055 31.5304C54.2632 30.9269 52.752 30.1349 51.9208 29.7955C53.0164 29.2674 54.8299 28.0605 55.5099 27.2307ZM40.2844 45.9002C40.2466 46.0134 40.1711 46.1265 40.0955 46.2396C40.0577 46.2774 40.0577 46.3151 40.0199 46.3527C39.9444 46.4282 39.9066 46.5414 39.831 46.6168C39.7933 46.6545 39.7555 46.73 39.7177 46.7676C39.6421 46.8808 39.5288 46.994 39.4154 47.1071C39.3399 47.1826 39.2644 47.258 39.1888 47.3334C39.1132 47.4088 39.0754 47.4466 38.9999 47.522C38.9243 47.5974 38.811 47.6728 38.7354 47.786C38.6976 47.8237 38.6221 47.8614 38.5843 47.9368C38.3576 48.1254 38.0932 48.3517 37.8287 48.5403C37.4887 48.8043 37.1108 49.0306 36.6952 49.2569C36.5442 49.3324 36.4308 49.4078 36.2797 49.4832C33.0305 51.1427 31.4437 52.3874 30.9904 52.8022H30.9526C30.4615 52.3874 28.8747 51.105 25.6634 49.4832C25.5122 49.4078 25.3989 49.3324 25.2478 49.2569C24.8321 49.0306 24.4544 48.8043 24.1143 48.5403C23.8499 48.3517 23.5854 48.1254 23.3588 47.9368C23.3209 47.8992 23.2454 47.8614 23.2076 47.786C23.0943 47.7106 23.0187 47.6351 22.9432 47.522C22.8676 47.4466 22.8298 47.4088 22.7542 47.3334C22.6787 47.258 22.6031 47.1826 22.5276 47.1071C22.4142 46.994 22.3009 46.8808 22.2253 46.7676C22.1875 46.73 22.1497 46.6545 22.1119 46.6168C22.0364 46.5414 21.9609 46.4282 21.923 46.3527C21.8853 46.3151 21.8853 46.2774 21.8475 46.2396C21.772 46.1265 21.6963 46.0134 21.6586 45.9002C21.243 44.9573 21.3186 44.2029 21.3186 44.2029V44.1652V31.6435C21.3186 31.4549 21.4697 31.2664 21.6964 31.2664H22.6409H30.8771H39.1132H40.2089C40.3978 31.2664 40.5867 31.4173 40.5867 31.6435V44.1652V44.2029C40.6245 44.2029 40.7 44.9573 40.2844 45.9002Z" fill="#A6AEBF"/>
<path d="M76.3281 25.5339H75.0439V17.6135H76.3661L79.0484 21.1966L81.6927 17.6135H82.9776V25.5339H81.6927V19.4993L79.3885 22.4789H78.6331L76.3281 19.4993V25.5339Z" fill="#A6AEBF"/>
<path d="M86.1132 25.5339H84.9797V17.6135H86.2646V23.4218L90.7978 17.6135H91.9312V25.5339H90.6471V19.7257L86.1132 25.5339Z" fill="#A6AEBF"/>
<path d="M95.2558 25.5339H93.9709V17.6135H95.2558V20.744H99.563V17.6135H100.847V25.5339H99.563V21.8755H95.2558V25.5339Z" fill="#A6AEBF"/>
<path d="M103.983 25.5339H102.888V17.6135H104.173V23.4218L108.706 17.6135H109.839V25.5339H108.555V19.7257L103.983 25.5339Z" fill="#A6AEBF"/>
<path d="M115.809 25.6842C114.563 25.6842 113.543 25.3071 112.711 24.515C111.88 23.723 111.464 22.7424 111.464 21.5732C111.464 20.3663 111.88 19.3857 112.711 18.6314C113.543 17.8393 114.563 17.4622 115.809 17.4622C116.64 17.4622 117.396 17.6508 118.039 17.9902V19.2348C117.358 18.82 116.64 18.5936 115.809 18.5936C114.94 18.5936 114.223 18.8576 113.656 19.4234C113.089 19.9892 112.787 20.668 112.787 21.5355C112.787 22.403 113.089 23.0818 113.656 23.6476C114.223 24.2133 114.978 24.4774 115.847 24.4774C116.792 24.4774 117.585 24.251 118.189 23.7608V25.0054C117.509 25.4957 116.716 25.6842 115.809 25.6842Z" fill="#A6AEBF"/>
<path d="M119.247 18.7821V17.6506H126.01V18.7821H123.29V25.571H122.005V18.7821H119.247Z" fill="#A6AEBF"/>
<path d="M133.377 25.5339H127.37V17.6135H133.226V18.7451H128.654V20.744H132.357V21.8755H128.654V24.4025H133.377V25.5339Z" fill="#A6AEBF"/>
<path d="M136.097 25.5339H134.812V17.6135H138.364C139.233 17.6135 139.913 17.8399 140.367 18.2547C140.857 18.6696 141.122 19.2353 141.122 19.9143C141.122 20.5931 140.857 21.1589 140.367 21.6115C139.875 22.0641 139.233 22.2526 138.364 22.2526H136.097V25.5339ZM136.097 18.7827V21.1211H138.25C138.742 21.1211 139.12 21.008 139.384 20.8194C139.648 20.6309 139.8 20.3291 139.8 19.9519C139.8 19.5748 139.648 19.2731 139.384 19.0845C139.12 18.8959 138.742 18.7827 138.25 18.7827H136.097Z" fill="#A6AEBF"/>
<path d="M146.6 25.6842C145.353 25.6842 144.334 25.3071 143.502 24.515C142.671 23.723 142.255 22.7424 142.255 21.5732C142.255 20.3663 142.671 19.3857 143.502 18.6314C144.334 17.8393 145.353 17.4622 146.6 17.4622C147.431 17.4622 148.187 17.6508 148.83 17.9902V19.2348C148.149 18.82 147.431 18.5936 146.6 18.5936C145.731 18.5936 145.013 18.8576 144.447 19.4234C143.88 19.9892 143.578 20.668 143.578 21.5355C143.578 22.403 143.88 23.0818 144.447 23.6476C145.013 24.2133 145.769 24.4774 146.638 24.4774C147.583 24.4774 148.376 24.251 148.98 23.7608V25.0054C148.338 25.4957 147.545 25.6842 146.6 25.6842Z" fill="#A6AEBF"/>
<path d="M150.075 18.7821V17.6506H156.838V18.7821H154.117V25.571H152.833V18.7821H150.075Z" fill="#A6AEBF"/>
<path d="M162.203 25.5339H158.161V17.6135H161.901C162.657 17.6135 163.223 17.8021 163.677 18.1416C164.13 18.481 164.319 18.9713 164.319 19.5748C164.319 19.9519 164.205 20.2914 164.017 20.5931C163.827 20.8949 163.563 21.0834 163.223 21.1966C163.752 21.272 164.167 21.536 164.47 21.9132C164.772 22.2903 164.961 22.7807 164.961 23.3464C164.961 24.0253 164.697 24.5533 164.205 24.9682C163.752 25.3453 163.072 25.5339 162.203 25.5339ZM159.445 18.7827V20.8194H161.674C162.09 20.8194 162.43 20.744 162.695 20.5554C162.921 20.3668 163.072 20.1405 163.072 19.8011C163.072 19.4617 162.959 19.1977 162.695 19.0468C162.468 18.8582 162.128 18.7827 161.674 18.7827H159.445ZM159.445 21.9132V24.4025H161.976C162.468 24.4025 162.883 24.2893 163.148 24.063C163.45 23.8367 163.563 23.535 163.563 23.1201C163.563 22.7429 163.412 22.4412 163.148 22.2149C162.883 21.9886 162.468 21.9132 161.976 21.9132H159.445Z" fill="#A6AEBF"/>
<path d="M173.463 24.515C172.669 25.3071 171.649 25.6842 170.44 25.6842C169.231 25.6842 168.211 25.3071 167.418 24.515C166.624 23.723 166.246 22.7424 166.246 21.5732C166.246 20.404 166.624 19.4234 167.418 18.6691C168.211 17.877 169.231 17.4622 170.44 17.4622C171.649 17.4622 172.669 17.877 173.463 18.6691C174.256 19.4611 174.671 20.4418 174.671 21.5732C174.671 22.7047 174.256 23.723 173.463 24.515ZM168.4 23.6853C168.967 24.251 169.647 24.515 170.44 24.515C171.234 24.515 171.914 24.251 172.48 23.6853C173.047 23.1196 173.312 22.403 173.312 21.5732C173.312 20.7434 173.047 20.0268 172.48 19.4611C171.914 18.8954 171.234 18.5936 170.44 18.5936C169.647 18.5936 168.967 18.8954 168.4 19.4611C167.833 20.0268 167.569 20.7058 167.569 21.5732C167.569 22.4407 167.871 23.1196 168.4 23.6853Z" fill="#A6AEBF"/>
<path d="M180.791 25.5339H179.507V17.6135H180.791V20.744H185.098V17.6135H186.383V25.5339H185.098V21.8755H180.791V25.5339Z" fill="#A6AEBF"/>
<path d="M189.027 25.533H187.667L191.256 17.575H192.503L196.092 25.533H194.694L193.787 23.5718H189.896L189.027 25.533ZM191.898 19.159L190.387 22.478H193.41L191.898 19.159Z" fill="#A6AEBF"/>
<path d="M198.548 25.6839C198.02 25.6839 197.642 25.6085 197.378 25.4954V24.3262C197.68 24.4393 197.982 24.5147 198.322 24.5147C198.662 24.5147 198.926 24.4393 199.153 24.2507C199.38 24.0998 199.606 23.7227 199.87 23.1947L196.659 17.575H198.133L200.589 21.8746L202.629 17.575H204.026L201.004 23.7981C200.324 25.0804 199.53 25.6839 198.548 25.6839Z" fill="#A6AEBF"/>
<path d="M206.52 25.5339H205.235V17.6135H206.52V20.8571L209.882 17.6135H211.545L207.729 21.2343L212.149 25.5339H210.411L206.52 21.7246V25.5339Z" fill="#A6AEBF"/>
<path d="M214.492 25.5339H213.396V17.6135H214.681V23.4218L219.214 17.6135H220.348V25.5339H219.064V19.7257L214.492 25.5339Z" fill="#A6AEBF"/>
<path d="M76.1394 39.2246H75.0439V31.3042H76.3281V37.1125L80.862 31.3042H81.9955V39.2246H80.7106V33.3786L76.1394 39.2246Z" fill="#A6AEBF"/>
<path d="M91.176 39.2246H87.1335V31.3042H90.874C91.6294 31.3042 92.1962 31.4928 92.6496 31.8323C93.1029 32.1717 93.2916 32.662 93.2916 33.2655C93.2916 33.6426 93.1783 33.9821 92.9896 34.2838C92.8009 34.5855 92.5362 34.7741 92.1962 34.8873C92.7249 34.9627 93.141 35.2267 93.443 35.6039C93.745 35.981 93.9344 36.4713 93.9344 37.0371C93.9344 37.7159 93.6697 38.2439 93.1783 38.6588C92.6876 39.036 92.0075 39.2246 91.176 39.2246ZM88.4184 32.4357V34.4723H90.6473C91.0627 34.4723 91.4027 34.3969 91.6674 34.2083C91.8941 34.0198 92.0448 33.7935 92.0448 33.454C92.0448 33.1146 91.9314 32.8506 91.6674 32.6997C91.4408 32.5111 91.1007 32.4357 90.6473 32.4357H88.4184ZM88.4184 35.6039V38.0931H90.9493C91.4408 38.0931 91.8561 37.9799 92.1208 37.7537C92.3848 37.5273 92.5362 37.2256 92.5362 36.8107C92.5362 36.4336 92.3848 36.1319 92.1208 35.9055C91.8561 35.6793 91.4408 35.6039 90.9493 35.6039H88.4184Z" fill="#A6AEBF"/>
<path d="M98.6567 39.2246H95.521V31.3042H96.8051V34.0575H98.6567C99.6008 34.0575 100.357 34.2838 100.923 34.7741C101.49 35.2644 101.754 35.8679 101.754 36.6599C101.754 37.4142 101.49 38.0554 100.923 38.5457C100.357 38.9983 99.6008 39.2246 98.6567 39.2246ZM96.8051 35.1889V38.0931H98.5807C99.1474 38.0931 99.6008 37.9799 99.9408 37.7159C100.281 37.4519 100.432 37.1125 100.432 36.6599C100.432 36.2073 100.281 35.8301 99.9408 35.5661C99.6008 35.3021 99.1474 35.1889 98.5807 35.1889H96.8051ZM104.135 39.2246H102.85V31.3042H104.135V39.2246Z" fill="#A6AEBF"/>
<path d="M110.104 39.3749C108.857 39.3749 107.837 38.9978 107.006 38.2057C106.174 37.4137 105.759 36.433 105.759 35.2639C105.759 34.057 106.174 33.0764 107.006 32.322C107.837 31.53 108.857 31.1528 110.104 31.1528C110.935 31.1528 111.69 31.3414 112.333 31.6808V32.9255C111.653 32.5106 110.935 32.2843 110.104 32.2843C109.235 32.2843 108.517 32.5483 107.95 33.114C107.384 33.6798 107.081 34.3587 107.081 35.2262C107.081 36.0936 107.384 36.7725 107.95 37.3382C108.517 37.904 109.273 38.168 110.142 38.168C111.086 38.168 111.88 37.9417 112.484 37.4514V38.696C111.842 39.1486 111.048 39.3749 110.104 39.3749Z" fill="#A6AEBF"/>
<path d="M124.12 39.2246H114.071V31.3042H115.355V38.0931H118.415V31.3042H119.7V38.0931H122.76V31.3042H124.044V39.2246H124.12Z" fill="#A6AEBF"/>
<path d="M132.13 39.2246H126.124V31.3042H131.98V32.4357H127.408V34.4347H131.11V35.5661H127.408V38.0931H132.13V39.2246Z" fill="#A6AEBF"/>
<path d="M134.851 39.2246H133.566V31.3042H139.346V32.4357H134.851V39.2246Z" fill="#A6AEBF"/>
<path d="M147.318 38.2057C146.525 38.9978 145.504 39.3749 144.296 39.3749C143.087 39.3749 142.067 38.9978 141.273 38.2057C140.48 37.4137 140.102 36.433 140.102 35.2639C140.102 34.0947 140.48 33.114 141.273 32.3598C142.067 31.5677 143.087 31.1528 144.296 31.1528C145.504 31.1528 146.525 31.5677 147.318 32.3598C148.111 33.1518 148.527 34.1324 148.527 35.2639C148.527 36.3954 148.111 37.4137 147.318 38.2057ZM142.255 37.376C142.822 37.9417 143.502 38.2057 144.296 38.2057C145.089 38.2057 145.769 37.9417 146.336 37.376C146.903 36.8102 147.167 36.0936 147.167 35.2639C147.167 34.4341 146.903 33.7175 146.336 33.1518C145.769 32.586 145.089 32.2843 144.296 32.2843C143.502 32.2843 142.822 32.586 142.255 33.1518C141.689 33.7175 141.424 34.3964 141.424 35.2639C141.424 36.1314 141.689 36.8102 142.255 37.376Z" fill="#A6AEBF"/>
<path d="M160.24 38.2057C159.446 38.9978 158.426 39.3749 157.217 39.3749C156.008 39.3749 154.988 38.9978 154.194 38.2057C153.401 37.4137 153.023 36.433 153.023 35.2639C153.023 34.0947 153.401 33.114 154.194 32.3598C154.988 31.5677 156.008 31.1528 157.217 31.1528C158.426 31.1528 159.446 31.5677 160.24 32.3598C161.033 33.1518 161.448 34.1324 161.448 35.2639C161.448 36.3954 161.033 37.4137 160.24 38.2057ZM155.177 37.376C155.744 37.9417 156.424 38.2057 157.217 38.2057C158.01 38.2057 158.69 37.9417 159.257 37.376C159.824 36.8102 160.088 36.0936 160.088 35.2639C160.088 34.4341 159.824 33.7175 159.257 33.1518C158.69 32.586 158.01 32.2843 157.217 32.2843C156.424 32.2843 155.744 32.586 155.177 33.1518C154.61 33.7175 154.346 34.3964 154.346 35.2639C154.346 36.1314 154.648 36.8102 155.177 37.376Z" fill="#A6AEBF"/>
<path d="M166.549 39.2246H163.073V31.3042H168.891V32.4357H164.357V34.0952H166.549C167.493 34.0952 168.211 34.3215 168.777 34.8118C169.306 35.2644 169.608 35.9055 169.608 36.6599C169.608 37.4142 169.344 38.0554 168.777 38.508C168.249 38.9983 167.493 39.2246 166.549 39.2246ZM164.357 35.2644V38.0931H166.435C167.002 38.0931 167.455 37.9799 167.795 37.7159C168.097 37.4519 168.286 37.1125 168.286 36.6976C168.286 36.2827 168.135 35.9056 167.795 35.6415C167.455 35.3775 167.039 35.2644 166.435 35.2644H164.357Z" fill="#A6AEBF"/>
<path d="M172.366 39.2246H171.082V31.3042H174.633C175.502 31.3042 176.182 31.5305 176.636 31.9454C177.127 32.3603 177.391 32.926 177.391 33.6049C177.391 34.2838 177.127 34.8495 176.636 35.3021C176.145 35.7547 175.502 35.9433 174.633 35.9433H172.366V39.2246ZM172.366 32.4357V34.8118H174.52C175.011 34.8118 175.389 34.6987 175.653 34.5101C175.918 34.3215 176.069 34.0198 176.069 33.6426C176.069 33.2655 175.918 32.9637 175.653 32.7751C175.389 32.5865 175.011 32.4734 174.52 32.4734H172.366V32.4357Z" fill="#A6AEBF"/>
<path d="M178.637 39.2237H177.277L180.866 31.2656H182.113L185.702 39.2237H184.343L183.436 37.2625H179.544L178.637 39.2237ZM181.471 32.812L179.959 36.131H182.983L181.471 32.812Z" fill="#A6AEBF"/>
<path d="M189.557 39.3755C188.385 39.3755 187.441 39.1493 186.686 38.6967V37.4897C187.063 37.7161 187.479 37.9046 187.97 38.0178C188.461 38.1687 188.914 38.2063 189.405 38.2063C190.085 38.2063 190.652 38.0932 191.068 37.8292C191.483 37.5652 191.672 37.2257 191.672 36.8109C191.672 36.4337 191.483 36.132 191.105 35.9057C190.728 35.6794 190.237 35.5663 189.632 35.5663H188.612V34.4347H189.783C190.275 34.4347 190.69 34.3216 190.955 34.1331C191.219 33.9445 191.37 33.6805 191.37 33.341C191.37 33.0015 191.219 32.7375 190.879 32.5489C190.577 32.3604 190.123 32.2849 189.595 32.2849C188.725 32.2849 187.856 32.4735 187.063 32.8507V31.7192C187.856 31.3043 188.725 31.1157 189.67 31.1157C190.577 31.1157 191.295 31.3043 191.824 31.7192C192.39 32.0964 192.655 32.6244 192.655 33.2655C192.655 33.6805 192.504 34.0576 192.239 34.3216C191.975 34.5856 191.672 34.8119 191.37 34.8873C191.785 35.0005 192.164 35.2268 192.504 35.6039C192.844 35.9434 192.994 36.3583 192.994 36.8863C192.994 37.6029 192.692 38.1687 192.088 38.6589C191.408 39.1493 190.577 39.3755 189.557 39.3755Z" fill="#A6AEBF"/>
<path d="M201.42 38.2057C200.627 38.9978 199.607 39.3749 198.398 39.3749C197.189 39.3749 196.169 38.9978 195.375 38.2057C194.582 37.4137 194.204 36.433 194.204 35.2639C194.204 34.0947 194.582 33.114 195.375 32.3598C196.169 31.5677 197.189 31.1528 198.398 31.1528C199.607 31.1528 200.627 31.5677 201.42 32.3598C202.214 33.1518 202.629 34.1324 202.629 35.2639C202.629 36.3954 202.214 37.4137 201.42 38.2057ZM196.357 37.376C196.924 37.9417 197.604 38.2057 198.398 38.2057C199.191 38.2057 199.871 37.9417 200.438 37.376C201.005 36.8102 201.269 36.0936 201.269 35.2639C201.269 34.4341 201.005 33.7175 200.438 33.1518C199.871 32.586 199.191 32.2843 198.398 32.2843C197.604 32.2843 196.924 32.586 196.357 33.1518C195.791 33.7175 195.526 34.3964 195.526 35.2639C195.526 36.1314 195.791 36.8102 196.357 37.376Z" fill="#A6AEBF"/>
<path d="M208.295 39.2246H204.253V31.3042H207.993C208.749 31.3042 209.316 31.4928 209.769 31.8323C210.222 32.1717 210.411 32.662 210.411 33.2655C210.411 33.6426 210.298 33.9821 210.109 34.2838C209.92 34.5855 209.656 34.7741 209.316 34.8873C209.844 34.9627 210.26 35.2267 210.562 35.6039C210.864 35.981 211.053 36.4713 211.053 37.0371C211.053 37.7159 210.789 38.2439 210.298 38.6588C209.806 39.036 209.127 39.2246 208.295 39.2246ZM205.537 32.4357V34.4723H207.767C208.182 34.4723 208.522 34.3969 208.787 34.2083C209.014 34.0198 209.164 33.7935 209.164 33.454C209.164 33.1146 209.051 32.8506 208.787 32.6997C208.56 32.5111 208.22 32.4357 207.767 32.4357H205.537ZM205.537 35.6039V38.0931H208.069C208.56 38.0931 208.976 37.9799 209.24 37.7537C209.504 37.5273 209.656 37.2256 209.656 36.8107C209.656 36.4336 209.504 36.1319 209.24 35.9055C208.976 35.6793 208.56 35.6039 208.069 35.6039H205.537Z" fill="#A6AEBF"/>
<path d="M213.207 39.2237H211.846L215.436 31.2656H216.682L220.271 39.2237H218.873L217.966 37.2625H214.075L213.207 39.2237ZM216.04 32.812L214.529 36.131H217.551L216.04 32.812Z" fill="#A6AEBF"/>
<path d="M222.841 39.2246H221.556V31.3042H222.841V34.4347H227.148V31.3042H228.433V39.2246H227.148V35.5661H222.841V39.2246Z" fill="#A6AEBF"/>
<path d="M231.569 39.2246H230.474V31.3042H231.758V37.1125L236.292 31.3042H237.425V39.2246H236.14V33.3786L231.569 39.2246Z" fill="#A6AEBF"/>
<path d="M240.333 39.2246H238.747L241.391 35.7547C240.824 35.6415 240.371 35.3775 240.031 34.9627C239.691 34.5855 239.54 34.0952 239.54 33.5672C239.54 32.8883 239.767 32.3225 240.257 31.9077C240.749 31.4928 241.429 31.3042 242.26 31.3042H246V39.2246H244.716V35.8679H242.789L240.333 39.2246ZM242.336 34.7741H244.753V32.4357H242.336C241.882 32.4357 241.504 32.5489 241.24 32.7374C240.976 32.9637 240.862 33.2277 240.862 33.6049C240.862 33.9821 240.976 34.2461 241.24 34.4723C241.504 34.6609 241.882 34.7741 242.336 34.7741Z" fill="#A6AEBF"/>
<path d="M76.3281 52.9152H75.0439V44.9949H78.595C79.4638 44.9949 80.1439 45.2212 80.5973 45.6361C81.0887 46.0509 81.3527 46.6167 81.3527 47.2955C81.3527 47.9745 81.0887 48.5402 80.5973 48.9927C80.1066 49.4453 79.4638 49.6339 78.595 49.6339H76.3281V52.9152ZM76.3281 46.1263V48.5025H78.4817C78.9731 48.5025 79.3504 48.3893 79.6152 48.2007C79.8799 47.9745 80.0305 47.7104 80.0305 47.3333C80.0305 46.9561 79.8799 46.6544 79.6152 46.4658C79.3504 46.2772 78.9731 46.1641 78.4817 46.1641H76.3281V46.1263Z" fill="#A6AEBF"/>
<path d="M89.7397 51.8593C88.9462 52.6513 87.9261 53.0285 86.7173 53.0285C85.5085 53.0285 84.4884 52.6513 83.6949 51.8593C82.9015 51.0673 82.5234 50.0867 82.5234 48.9175C82.5234 47.7483 82.9015 46.7677 83.6949 46.0133C84.4884 45.2213 85.5085 44.8064 86.7173 44.8064C87.9261 44.8064 88.9462 45.2213 89.7397 46.0133C90.5331 46.8053 90.9485 47.786 90.9485 48.9175C90.9485 50.0867 90.5331 51.0673 89.7397 51.8593ZM84.677 51.0295C85.2438 51.5953 85.9239 51.8593 86.7173 51.8593C87.5107 51.8593 88.1908 51.5953 88.7576 51.0295C89.3243 50.4638 89.5883 49.7472 89.5883 48.9175C89.5883 48.0877 89.3243 47.3711 88.7576 46.8053C88.1908 46.2396 87.5107 45.9379 86.7173 45.9379C85.9239 45.9379 85.2438 46.2396 84.677 46.8053C84.1103 47.3711 83.8463 48.05 83.8463 48.9175C83.8463 49.7849 84.1483 50.5015 84.677 51.0295Z" fill="#A6AEBF"/>
<path d="M96.6538 53.0656C95.407 53.0656 94.3869 52.6884 93.5562 51.8964C92.7247 51.1044 92.3093 50.1237 92.3093 48.9545C92.3093 47.7476 92.7247 46.767 93.5562 46.0127C94.3869 45.2206 95.407 44.8435 96.6538 44.8435C97.4853 44.8435 98.2407 45.032 98.8828 45.3715V46.6162C98.2034 46.2012 97.4853 45.975 96.6538 45.975C95.7851 45.975 95.067 46.239 94.5002 46.8047C93.9335 47.3704 93.6315 48.0494 93.6315 48.9168C93.6315 49.7843 93.9335 50.4632 94.5002 51.0289C95.067 51.5946 95.8231 51.8586 96.6919 51.8586C97.6367 51.8586 98.4301 51.6324 99.0341 51.142V52.3867C98.3921 52.8392 97.5986 53.0656 96.6538 53.0656Z" fill="#A6AEBF"/>
<path d="M104.476 53.0656C103.229 53.0656 102.209 52.6884 101.377 51.8964C100.546 51.1044 100.13 50.1237 100.13 48.9545C100.13 47.7476 100.546 46.767 101.377 46.0127C102.209 45.2206 103.229 44.8435 104.476 44.8435C105.306 44.8435 106.062 45.032 106.705 45.3715V46.6162C106.024 46.2012 105.306 45.975 104.476 45.975C103.606 45.975 102.889 46.239 102.322 46.8047C101.755 47.3704 101.453 48.0494 101.453 48.9168C101.453 49.7843 101.755 50.4632 102.322 51.0289C102.889 51.5946 103.644 51.8586 104.513 51.8586C105.458 51.8586 106.251 51.6324 106.855 51.142V52.3867C106.176 52.8392 105.382 53.0656 104.476 53.0656Z" fill="#A6AEBF"/>
<path d="M109.537 52.9152H108.442V44.9949H109.727V50.8031L114.26 44.9949H115.393V52.9152H114.109V47.0693L109.537 52.9152Z" fill="#A6AEBF"/>
<path d="M118.49 52.9156H117.395V44.9953H118.679V50.8035L123.213 44.9953H124.347V52.9156H123.062V47.0696L118.49 52.9156ZM120.871 44.5049C120.266 44.5049 119.737 44.3163 119.359 43.9769C118.982 43.6375 118.792 43.1849 118.755 42.6191H119.851C119.851 42.8831 119.926 43.1095 120.115 43.298C120.304 43.4866 120.531 43.562 120.833 43.562C121.135 43.562 121.399 43.4866 121.551 43.298C121.74 43.1095 121.815 42.8831 121.815 42.6191H122.911C122.911 43.1849 122.722 43.6375 122.306 43.9769C121.966 44.3541 121.475 44.5049 120.871 44.5049Z" fill="#A6AEBF"/>
<path d="M130.316 53.0656C129.069 53.0656 128.049 52.6884 127.218 51.8964C126.387 51.1044 125.971 50.1237 125.971 48.9545C125.971 47.7476 126.387 46.767 127.218 46.0127C128.049 45.2206 129.069 44.8435 130.316 44.8435C131.147 44.8435 131.903 45.032 132.545 45.3715V46.6162C131.865 46.2012 131.147 45.975 130.316 45.975C129.447 45.975 128.729 46.239 128.162 46.8047C127.596 47.3704 127.294 48.0494 127.294 48.9168C127.294 49.7843 127.596 50.4632 128.162 51.0289C128.729 51.5946 129.485 51.8586 130.354 51.8586C131.298 51.8586 132.091 51.6324 132.696 51.142V52.3867C132.054 52.8392 131.261 53.0656 130.316 53.0656Z" fill="#A6AEBF"/>
<path d="M135.607 52.9152H134.322V44.9949H135.607V48.2385L138.969 44.9949H140.631L136.815 48.6156L141.236 52.9152H139.46L135.607 49.1059V52.9152Z" fill="#A6AEBF"/>
<path d="M148.527 51.8593C147.733 52.6513 146.714 53.0285 145.504 53.0285C144.296 53.0285 143.275 52.6513 142.482 51.8593C141.689 51.0673 141.311 50.0867 141.311 48.9175C141.311 47.7483 141.689 46.7677 142.482 46.0133C143.275 45.2213 144.296 44.8064 145.504 44.8064C146.714 44.8064 147.733 45.2213 148.527 46.0133C149.32 46.8053 149.736 47.786 149.736 48.9175C149.698 50.0867 149.32 51.0673 148.527 51.8593ZM143.464 51.0295C144.031 51.5953 144.711 51.8593 145.504 51.8593C146.298 51.8593 146.978 51.5953 147.545 51.0295C148.111 50.4638 148.376 49.7472 148.376 48.9175C148.376 48.0877 148.111 47.3711 147.545 46.8053C146.978 46.2396 146.298 45.9379 145.504 45.9379C144.711 45.9379 144.031 46.2396 143.464 46.8053C142.897 47.3711 142.633 48.05 142.633 48.9175C142.633 49.7849 142.897 50.5015 143.464 51.0295Z" fill="#A6AEBF"/>
<path d="M152.456 52.9156H151.36V44.9953H152.645V50.8035L157.179 44.9953H158.312V52.9156H157.027V47.0696L152.456 52.9156ZM154.798 44.5049C154.194 44.5049 153.665 44.3163 153.287 43.9769C152.909 43.6375 152.72 43.1849 152.683 42.6191H153.778C153.778 42.8831 153.854 43.1095 154.043 43.298C154.232 43.4866 154.458 43.562 154.76 43.562C155.062 43.562 155.327 43.4866 155.478 43.298C155.667 43.1095 155.742 42.8831 155.742 42.6191H156.839C156.839 43.1849 156.649 43.6375 156.234 43.9769C155.894 44.3541 155.402 44.5049 154.798 44.5049Z" fill="#A6AEBF"/>
<path d="M168.437 53.1797H167.152V52.3122C165.868 52.2745 164.848 51.9351 164.168 51.2939C163.488 50.6527 163.148 49.8607 163.148 48.9178C163.148 48.4652 163.223 48.0503 163.413 47.6731C163.563 47.2583 163.828 46.9189 164.13 46.5794C164.433 46.2399 164.886 46.0137 165.415 45.7873C165.944 45.5988 166.548 45.4856 167.19 45.4479V44.6936H168.475V45.4479C169.155 45.4479 169.722 45.5611 170.251 45.7497C170.78 45.9382 171.195 46.2023 171.535 46.5417C171.875 46.8811 172.102 47.2205 172.253 47.6355C172.404 48.0503 172.518 48.4652 172.518 48.8801C172.518 49.2949 172.442 49.7475 172.253 50.1247C172.064 50.5019 171.838 50.879 171.535 51.2185C171.195 51.5579 170.78 51.7842 170.251 52.0105C169.722 52.1991 169.117 52.3122 168.475 52.3122V53.1797H168.437ZM167.152 51.2185V46.5794C166.284 46.5794 165.604 46.8057 165.113 47.2583C164.659 47.7109 164.433 48.2389 164.433 48.9178C164.433 49.5589 164.659 50.1247 165.113 50.5773C165.566 50.9545 166.246 51.1807 167.152 51.2185ZM168.437 46.5417V51.1807C169.344 51.1807 170.024 50.9545 170.478 50.5019C170.931 50.0493 171.158 49.5213 171.158 48.8423C171.158 48.2012 170.931 47.6355 170.478 47.1829C169.986 46.8057 169.306 46.5794 168.437 46.5417Z" fill="#A6AEBF"/>
<path d="M179.999 52.9152H173.991V44.9949H179.848V46.1263H175.276V48.1253H178.979V49.2568H175.276V51.7837H179.999V52.9152Z" fill="#A6AEBF"/>
<path d="M182.227 54.6125H181.018V51.7837H181.812C182.227 51.1426 182.567 50.426 182.756 49.5586C182.945 48.6911 183.058 47.5219 183.058 46.0887V44.9949H188.499V51.7837H189.67V54.6125H188.461V52.9152H182.227V54.6125ZM183.21 51.746H187.214V46.0887H184.305C184.305 47.4087 184.23 48.5025 184.04 49.4077C183.89 50.3505 183.625 51.1426 183.21 51.746Z" fill="#A6AEBF"/>
<path d="M197.037 52.9152H191.029V44.9949H196.885V46.1263H192.314V48.1253H196.017V49.2568H192.314V51.7837H197.037V52.9152Z" fill="#A6AEBF"/>
<path d="M199.758 52.9152H198.473V44.9949H202.025C202.893 44.9949 203.574 45.2212 204.027 45.6361C204.518 46.0509 204.782 46.6167 204.782 47.2955C204.782 47.9745 204.518 48.5402 204.027 48.9927C203.536 49.4453 202.893 49.6339 202.025 49.6339H199.758V52.9152ZM199.758 46.1263V48.5025H201.911C202.402 48.5025 202.78 48.3893 203.045 48.2007C203.309 47.9745 203.46 47.7104 203.46 47.3333C203.46 46.9561 203.309 46.6544 203.045 46.4658C202.78 46.2772 202.402 46.1641 201.911 46.1641H199.758V46.1263Z" fill="#A6AEBF"/>
<path d="M206.029 52.9158H204.668L208.258 44.9578H209.504L213.093 52.9158H211.695L210.789 50.9546H206.897L206.029 52.9158ZM208.862 46.5041L207.351 49.8231H210.373L208.862 46.5041Z" fill="#A6AEBF"/>
<path d="M222.236 54.6125H220.989V52.9152H214.377V44.9949H215.662V51.7837H219.705V44.9949H220.989V51.7837H222.16V54.6125H222.236Z" fill="#A6AEBF"/>
<path d="M224.693 52.9152H223.597V44.9949H224.882V50.8031L229.415 44.9949H230.549V52.9152H229.264V47.0693L224.693 52.9152Z" fill="#A6AEBF"/>
<path d="M233.646 52.9152H232.551V44.9949H233.836V50.8031L238.369 44.9949H239.503V52.9152H238.218V47.0693L233.646 52.9152Z" fill="#A6AEBF"/>
</svg>
